<svg width="100" height="100" viewBox="0 0 100 100" fill="none" xmlns="http://www.w3.org/2000/svg">
<path d="M50 100C77.6142 100 100 77.6142 100 50C100 22.3858 77.6142 -9.53674e-06 50 -9.53674e-06C22.3858 -9.53674e-06 0 22.3858 0 50C0 77.6142 22.3858 100 50 100Z" fill="#2E2E2E"/>
<g clip-path="url(#clip0_1_30)">
<g clip-path="url(#clip1_1_30)">
<g clip-path="url(#clip2_1_30)">
<g clip-path="url(#clip3_1_30)">
<g clip-path="url(#clip4_1_30)">
<g clip-path="url(#clip5_1_30)">
<g clip-path="url(#clip6_1_30)">
<g clip-path="url(#clip7_1_30)">
<path d="M83.6925 23.1247H16.6733C15.2226 23.1247 14.0414 24.3059 14.0414 25.7567V74.1787C14.0414 75.6295 15.2226 76.8106 16.6733 76.8106H83.6934C85.145 76.8106 86.3253 75.6295 86.3253 74.1787V73.0468V34.6832V25.7558C86.3245 24.305 85.1441 23.1247 83.6925 23.1247ZM16.6733 24.1775H83.6934C84.5633 24.1775 85.2726 24.8859 85.2726 25.7558V33.4731C85.2147 33.4646 85.1569 33.4552 85.0965 33.4552H15.2753C15.2132 33.4552 15.1537 33.4646 15.0941 33.4731V25.755C15.0941 24.8859 15.8025 24.1775 16.6733 24.1775ZM85.2726 73.0468C85.2726 73.1438 85.1935 73.222 85.0965 73.222H15.2753C15.1792 73.222 15.1001 73.1438 15.1001 73.0468V34.6832C15.1001 34.5871 15.1792 34.508 15.2753 34.508H85.0957C85.1926 34.508 85.2717 34.5871 85.2717 34.6832L85.2726 73.0468ZM83.6925 75.757H16.6733C15.8297 75.757 15.1443 75.0903 15.1018 74.2569C15.1588 74.2654 15.2166 74.2748 15.2753 74.2748H85.0957C85.1535 74.2748 85.2088 74.2654 85.2632 74.2578C85.2207 75.0912 84.5353 75.757 83.6925 75.757Z" fill="#07F6E5"/>
<path d="M31.6257 31.0775C32.8588 31.0775 33.8622 30.0741 33.8622 28.841C33.8622 27.6071 32.8588 26.6036 31.6257 26.6036C30.3927 26.6036 29.3883 27.6071 29.3883 28.841C29.3883 30.0741 30.3927 31.0775 31.6257 31.0775ZM31.6257 27.6573C32.2788 27.6573 32.8103 28.1879 32.8103 28.8419C32.8103 29.495 32.2788 30.0265 31.6257 30.0265C30.9718 30.0265 30.4411 29.495 30.4411 28.8419C30.4411 28.1879 30.9718 27.6573 31.6257 27.6573Z" fill="#07F6E5"/>
<path d="M25.9111 31.0775C27.145 31.0775 28.1485 30.0741 28.1485 28.841C28.1485 27.6071 27.145 26.6036 25.9111 26.6036C24.678 26.6036 23.6746 27.6071 23.6746 28.841C23.6746 30.0741 24.678 31.0775 25.9111 31.0775ZM25.9111 27.6573C26.5651 27.6573 27.0957 28.1879 27.0957 28.8419C27.0957 29.495 26.5651 30.0265 25.9111 30.0265C25.258 30.0265 24.7265 29.495 24.7265 28.8419C24.7265 28.1879 25.258 27.6573 25.9111 27.6573Z" fill="#07F6E5"/>
<path d="M20.1965 31.0775C21.4304 31.0775 22.4339 30.0741 22.4339 28.841C22.4339 27.6071 21.4304 26.6036 20.1965 26.6036C18.9634 26.6036 17.96 27.6071 17.96 28.841C17.96 30.0741 18.9634 31.0775 20.1965 31.0775ZM20.1965 27.6573C20.8504 27.6573 21.3811 28.1879 21.3811 28.8419C21.3811 29.495 20.8504 30.0265 20.1965 30.0265C19.5434 30.0265 19.0119 29.495 19.0119 28.8419C19.0127 28.1879 19.5442 27.6573 20.1965 27.6573Z" fill="#07F6E5"/>
<path d="M30.2821 63.5012C29.7515 63.5012 29.0958 63.1364 28.3356 62.4161C26.9707 61.1244 26.4987 60.3998 27.3151 59.5205L34.79 52.0277L27.3287 44.5596C26.7538 43.9847 26.844 43.5434 26.9877 43.2245C27.1935 42.7619 27.6799 42.2746 28.2454 41.71C28.9504 41.005 29.5567 40.3987 30.1511 40.3987C30.442 40.3987 30.7286 40.5449 31.0296 40.846L41.0378 50.8423C41.3023 51.0583 41.4809 51.4027 41.5175 51.8066C41.5583 52.2633 41.4035 52.7863 41.1331 53.1103L31.0747 63.1602C30.8306 63.3923 30.5738 63.5012 30.2821 63.5012ZM27.9418 43.6488C27.9342 43.6488 27.9648 43.7067 28.0728 43.8138L35.9057 51.6553C36.1107 51.8611 36.1107 52.1936 35.9057 52.3994L28.0728 60.251C27.9937 60.336 27.9665 60.376 27.9597 60.3922C27.9699 60.4321 28.066 60.7128 29.0584 61.6507C29.8909 62.4391 30.2659 62.4484 30.2813 62.4484V62.9748L30.2898 62.4476L30.2889 62.4484C30.2864 62.4484 30.3059 62.4382 30.3408 62.4059L40.3558 52.3994C40.4077 52.3339 40.4842 52.0958 40.4672 51.8985C40.4562 51.7752 40.4136 51.6893 40.3295 51.6195L30.2847 41.5892C30.1622 41.4676 30.1018 41.4438 30.1018 41.4438C29.947 41.4948 29.3484 42.0935 28.9904 42.4506C28.5388 42.903 28.0745 43.3674 27.9469 43.6522C27.9452 43.6497 27.9435 43.6488 27.9418 43.6488Z" fill="#07F6E5"/>
<path d="M55.1441 68.1962H42.1025C40.747 68.1962 40.4698 67.1468 40.4698 65.5702C40.4698 63.9936 40.747 62.9442 42.1025 62.9442H55.1441C56.4222 62.9442 56.6637 63.8669 56.6637 65.5702C56.6637 67.3118 56.4299 68.1962 55.1441 68.1962ZM42.1025 63.9961C41.7913 63.9961 41.5217 63.9961 41.5217 65.5702C41.5217 67.1443 41.7904 67.1443 42.1025 67.1443H55.1441C55.4451 67.1443 55.6118 67.1443 55.6118 65.5702C55.6118 63.9961 55.4256 63.9961 55.1441 63.9961H42.1025Z" fill="#07F6E5"/>
</g>
</g>
</g>
</g>
</g>
</g>
</g>
</g>
<defs>
<clipPath id="clip0_1_30">
<rect width="72.4219" height="53.7506" fill="white" transform="translate(13.9724 23.0924)"/>
</clipPath>
<clipPath id="clip1_1_30">
<rect width="72.284" height="53.686" fill="white" transform="translate(14.0414 23.1247)"/>
</clipPath>
<clipPath id="clip2_1_30">
<rect width="72.284" height="53.686" fill="white" transform="translate(14.0414 23.1247)"/>
</clipPath>
<clipPath id="clip3_1_30">
<rect width="72.284" height="53.686" fill="white" transform="translate(14.0414 23.1247)"/>
</clipPath>
<clipPath id="clip4_1_30">
<rect width="72.284" height="53.686" fill="white" transform="translate(14.0414 23.1247)"/>
</clipPath>
<clipPath id="clip5_1_30">
<rect width="72.284" height="53.686" fill="white" transform="translate(14.0414 23.1247)"/>
</clipPath>
<clipPath id="clip6_1_30">
<rect width="72.284" height="53.686" fill="white" transform="translate(14.0414 23.1247)"/>
</clipPath>
<clipPath id="clip7_1_30">
<rect width="72.284" height="53.686" fill="white" transform="translate(14.0414 23.1247)"/>
</clipPath>
</defs>
</svg>
