<svg xmlns="http://www.w3.org/2000/svg" version="1.1" xmlns:xlink="http://www.w3.org/1999/xlink" xmlns:svgjs="http://svgjs.dev/svgjs" width="128" height="128" viewBox="0 0 128 128"><g transform="matrix(0.8046875,0,0,0.8046875,12.374478358208961,9.958606291118414)"><svg viewBox="0 0 90 95" data-background-color="#0a182e" preserveAspectRatio="xMidYMid meet" height="135" width="128" xmlns="http://www.w3.org/2000/svg" xmlns:xlink="http://www.w3.org/1999/xlink"><g id="tight-bounds" transform="matrix(1,0,0,1,0.10967910447760687,-0.24049999999999727)"><svg viewBox="0 0 89.78064179104477 95.481" height="95.481" width="89.78064179104477"><g><svg viewBox="0 0 89.78064179104477 95.481" height="95.481" width="89.78064179104477"><g><svg viewBox="0 0 89.78064179104477 95.481" height="95.481" width="89.78064179104477"><g><svg viewBox="0 0 89.78064179104477 95.481" height="95.481" width="89.78064179104477"><g id="textblocktransform"><svg viewBox="0 0 89.78064179104477 95.481" height="95.481" width="89.78064179104477" id="textblock"><g><svg viewBox="0 0 89.78064179104477 95.481" height="95.481" width="89.78064179104477"><g transform="matrix(1,0,0,1,0,0)"><svg width="89.78064179104477" viewBox="0.49 -33.54 32.3 34.35" height="95.481" data-palette-color="#66ffdb"><path d="M32.79-33.54L32.79-31.4 29.91-30.86 18.7 0.81 14.89 0.81 3.44-30.91 0.49-31.4 0.49-33.54 12.45-33.54 12.45-31.4 9.5-31.15Q9.28-31.13 9.16-30.88 9.03-30.64 9.03-30.42L9.03-30.42Q9.03-30.3 9.06-30.25L9.06-30.25 17.85-5.54 26.29-30.15Q26.32-30.2 26.32-30.32L26.32-30.32Q26.32-30.59 26.1-30.86 25.88-31.13 25.61-31.15L25.61-31.15 22.85-31.4 22.85-33.54 32.79-33.54Z" opacity="1" transform="matrix(1,0,0,1,0,0)" fill="#66ffdb" class="wordmark-text-0" data-fill-palette-color="primary" id="text-0"></path></svg></g></svg></g></svg></g></svg></g></svg></g></svg></g><defs></defs></svg><rect width="89.78064179104477" height="95.481" fill="none" stroke="none" visibility="hidden"></rect></g></svg></g></svg>
