<svg width="32" height="32" viewBox="0 0 32 32" fill="none" xmlns="http://www.w3.org/2000/svg">
<g clip-path="url(#clip0_1_5)">
<g clip-path="url(#clip1_1_5)">
<g clip-path="url(#clip2_1_5)">
<g clip-path="url(#clip3_1_5)">
<g clip-path="url(#clip4_1_5)">
<g clip-path="url(#clip5_1_5)">
<g clip-path="url(#clip6_1_5)">
<g clip-path="url(#clip7_1_5)">
<path d="M27.9796 6.44434H4.15051C3.63468 6.44434 3.2147 6.86432 3.2147 7.38014V24.5969C3.2147 25.1127 3.63468 25.5327 4.15051 25.5327H27.9799C28.496 25.5327 28.9157 25.1127 28.9157 24.5969V24.1944V10.554V7.37984C28.9154 6.86401 28.4957 6.44434 27.9796 6.44434ZM4.15051 6.81866H27.9799C28.2892 6.81866 28.5413 7.07053 28.5413 7.37984V10.1238C28.5208 10.1207 28.5002 10.1174 28.4788 10.1174H3.65342C3.63135 10.1174 3.61019 10.1207 3.58902 10.1238V7.37954C3.58902 7.07053 3.84089 6.81866 4.15051 6.81866ZM28.5413 24.1944C28.5413 24.2289 28.5132 24.2567 28.4788 24.2567H3.65342C3.61926 24.2567 3.59114 24.2289 3.59114 24.1944V10.554C3.59114 10.5199 3.61926 10.4917 3.65342 10.4917H28.4785C28.5129 10.4917 28.541 10.5199 28.541 10.554L28.5413 24.1944ZM27.9796 25.1581H4.15051C3.85056 25.1581 3.60686 24.921 3.59174 24.6247C3.612 24.6277 3.63256 24.631 3.65342 24.631H28.4785C28.499 24.631 28.5187 24.6277 28.538 24.625C28.5229 24.9213 28.2792 25.1581 27.9796 25.1581Z" fill="#07F6E5"/>
<path d="M9.46692 9.27203C9.90534 9.27203 10.2621 8.91524 10.2621 8.47682C10.2621 8.03809 9.90534 7.6813 9.46692 7.6813C9.0285 7.6813 8.67141 8.03809 8.67141 8.47682C8.67141 8.91524 9.0285 9.27203 9.46692 9.27203ZM9.46692 8.05593C9.69913 8.05593 9.88811 8.2446 9.88811 8.47712C9.88811 8.70933 9.69913 8.89831 9.46692 8.89831C9.2344 8.89831 9.04573 8.70933 9.04573 8.47712C9.04573 8.2446 9.2344 8.05593 9.46692 8.05593Z" fill="#07F6E5"/>
<path d="M7.43506 9.27203C7.87378 9.27203 8.23057 8.91524 8.23057 8.47682C8.23057 8.03809 7.87378 7.6813 7.43506 7.6813C6.99663 7.6813 6.63985 8.03809 6.63985 8.47682C6.63985 8.91524 6.99663 9.27203 7.43506 9.27203ZM7.43506 8.05593C7.66757 8.05593 7.85624 8.2446 7.85624 8.47712C7.85624 8.70933 7.66757 8.89831 7.43506 8.89831C7.20284 8.89831 7.01387 8.70933 7.01387 8.47712C7.01387 8.2446 7.20284 8.05593 7.43506 8.05593Z" fill="#07F6E5"/>
<path d="M5.40319 9.27203C5.84191 9.27203 6.1987 8.91524 6.1987 8.47682C6.1987 8.03809 5.84191 7.6813 5.40319 7.6813C4.96476 7.6813 4.60798 8.03809 4.60798 8.47682C4.60798 8.91524 4.96476 9.27203 5.40319 9.27203ZM5.40319 8.05593C5.6357 8.05593 5.82438 8.2446 5.82438 8.47712C5.82438 8.70933 5.6357 8.89831 5.40319 8.89831C5.17097 8.89831 4.982 8.70933 4.982 8.47712C4.9823 8.2446 5.17128 8.05593 5.40319 8.05593Z" fill="#07F6E5"/>
<path d="M8.98919 20.8004C8.80051 20.8004 8.56739 20.6707 8.29708 20.4146C7.81179 19.9553 7.64398 19.6977 7.93425 19.3851L10.592 16.721L7.93909 14.0656C7.73469 13.8612 7.76674 13.7043 7.81784 13.5909C7.89101 13.4264 8.06396 13.2532 8.26503 13.0524C8.51569 12.8018 8.73127 12.5862 8.94262 12.5862C9.04603 12.5862 9.14793 12.6382 9.25496 12.7452L12.8134 16.2995C12.9075 16.3763 12.971 16.4987 12.984 16.6424C12.9985 16.8047 12.9435 16.9907 12.8473 17.1059L9.27099 20.6792C9.18421 20.7617 9.0929 20.8004 8.98919 20.8004ZM8.15709 13.7418C8.15437 13.7418 8.16525 13.7624 8.20365 13.8005L10.9887 16.5885C11.0616 16.6617 11.0616 16.7799 10.9887 16.8531L8.20365 19.6448C8.17553 19.675 8.16586 19.6892 8.16344 19.695C8.16707 19.7092 8.20124 19.809 8.55409 20.1425C8.8501 20.4228 8.98344 20.4261 8.98889 20.4261V20.6133L8.99191 20.4258L8.99161 20.4261C8.9907 20.4261 8.99765 20.4225 9.01005 20.411L12.571 16.8531C12.5894 16.8298 12.6166 16.7452 12.6106 16.675C12.6066 16.6312 12.5915 16.6006 12.5616 16.5758L8.99009 13.0095C8.94655 12.9662 8.92509 12.9578 8.92509 12.9578C8.87006 12.9759 8.6572 13.1888 8.5299 13.3158C8.36935 13.4766 8.20426 13.6417 8.1589 13.743C8.1583 13.7421 8.1577 13.7418 8.15709 13.7418Z" fill="#07F6E5"/>
<path d="M17.829 22.4698H13.192C12.71 22.4698 12.6115 22.0967 12.6115 21.5361C12.6115 20.9755 12.71 20.6024 13.192 20.6024H17.829C18.2835 20.6024 18.3693 20.9304 18.3693 21.5361C18.3693 22.1553 18.2862 22.4698 17.829 22.4698ZM13.192 20.9764C13.0813 20.9764 12.9855 20.9764 12.9855 21.5361C12.9855 22.0957 13.081 22.0957 13.192 22.0957H17.829C17.936 22.0957 17.9953 22.0957 17.9953 21.5361C17.9953 20.9764 17.9291 20.9764 17.829 20.9764H13.192Z" fill="#07F6E5"/>
</g>
</g>
</g>
</g>
</g>
</g>
</g>
</g>
<defs>
<clipPath id="clip0_1_5">
<rect width="25.75" height="19.1113" fill="white" transform="translate(3.19019 6.43283)"/>
</clipPath>
<clipPath id="clip1_1_5">
<rect width="25.701" height="19.0883" fill="white" transform="translate(3.2147 6.44434)"/>
</clipPath>
<clipPath id="clip2_1_5">
<rect width="25.701" height="19.0883" fill="white" transform="translate(3.2147 6.44434)"/>
</clipPath>
<clipPath id="clip3_1_5">
<rect width="25.701" height="19.0883" fill="white" transform="translate(3.2147 6.44434)"/>
</clipPath>
<clipPath id="clip4_1_5">
<rect width="25.701" height="19.0883" fill="white" transform="translate(3.2147 6.44434)"/>
</clipPath>
<clipPath id="clip5_1_5">
<rect width="25.701" height="19.0883" fill="white" transform="translate(3.2147 6.44434)"/>
</clipPath>
<clipPath id="clip6_1_5">
<rect width="25.701" height="19.0883" fill="white" transform="translate(3.2147 6.44434)"/>
</clipPath>
<clipPath id="clip7_1_5">
<rect width="25.701" height="19.0883" fill="white" transform="translate(3.2147 6.44434)"/>
</clipPath>
</defs>
</svg>
