<svg width="0" height="0" class="hidden">
  <symbol xml:space="preserve" xmlns="http://www.w3.org/2000/svg" fill-rule="evenodd" clip-rule="evenodd" stroke-linejoin="round" stroke-miterlimit="2" viewBox="0 0 512 512" id="facebook">
    <path d="M512 257.555c0-141.385-114.615-256-256-256S0 116.17 0 257.555c0 127.777 93.616 233.685 216 252.89v-178.89h-65v-74h65v-56.4c0-64.16 38.219-99.6 96.695-99.6 28.009 0 57.305 5 57.305 5v63h-32.281c-31.801 0-41.719 19.733-41.719 39.978v48.022h71l-11.35 74H296v178.89c122.385-19.205 216-125.113 216-252.89Z" fill-rule="nonzero" fill="currentColor"></path>
  </symbol>
  <symbol xmlns="http://www.w3.org/2000/svg" xmlns:xlink="http://www.w3.org/1999/xlink" viewBox="0,0,256,256" id="github">
    <g fill="currentColor" fill-rule="nonzero" stroke="none" stroke-width="1" stroke-linecap="butt" stroke-linejoin="miter" stroke-miterlimit="10" stroke-dasharray="" stroke-dashoffset="0" font-family="none" font-weight="none" font-size="none" text-anchor="none">
      <g transform="scale(5.12,5.12)">
        <path d="M17.791,46.836c0.711,-0.306 1.209,-1.013 1.209,-1.836v-5.4c0,-0.197 0.016,-0.402 0.041,-0.61c-0.014,0.004 -0.027,0.007 -0.041,0.01c0,0 -3,0 -3.6,0c-1.5,0 -2.8,-0.6 -3.4,-1.8c-0.7,-1.3 -1,-3.5 -2.8,-4.7c-0.3,-0.2 -0.1,-0.5 0.5,-0.5c0.6,0.1 1.9,0.9 2.7,2c0.9,1.1 1.8,2 3.4,2c2.487,0 3.82,-0.125 4.622,-0.555c0.934,-1.389 2.227,-2.445 3.578,-2.445v-0.025c-5.668,-0.182 -9.289,-2.066 -10.975,-4.975c-3.665,0.042 -6.856,0.405 -8.677,0.707c-0.058,-0.327 -0.108,-0.656 -0.151,-0.987c1.797,-0.296 4.843,-0.647 8.345,-0.714c-0.112,-0.276 -0.209,-0.559 -0.291,-0.849c-3.511,-0.178 -6.541,-0.039 -8.187,0.097c-0.02,-0.332 -0.047,-0.663 -0.051,-0.999c1.649,-0.135 4.597,-0.27 8.018,-0.111c-0.079,-0.5 -0.13,-1.011 -0.13,-1.543c0,-1.7 0.6,-3.5 1.7,-5c-0.5,-1.7 -1.2,-5.3 0.2,-6.6c2.7,0 4.6,1.3 5.5,2.1c1.699,-0.701 3.599,-1.101 5.699,-1.101c2.1,0 4,0.4 5.6,1.1c0.9,-0.8 2.8,-2.1 5.5,-2.1c1.5,1.4 0.7,5 0.2,6.6c1.1,1.5 1.7,3.2 1.6,5c0,0.484 -0.045,0.951 -0.11,1.409c3.499,-0.172 6.527,-0.034 8.204,0.102c-0.002,0.337 -0.033,0.666 -0.051,0.999c-1.671,-0.138 -4.775,-0.28 -8.359,-0.089c-0.089,0.336 -0.197,0.663 -0.325,0.98c3.546,0.046 6.665,0.389 8.548,0.689c-0.043,0.332 -0.093,0.661 -0.151,0.987c-1.912,-0.306 -5.171,-0.664 -8.879,-0.682c-1.665,2.878 -5.22,4.755 -10.777,4.974v0.031c2.6,0 5,3.9 5,6.6v5.4c0,0.823 0.498,1.53 1.209,1.836c9.161,-3.032 15.791,-11.672 15.791,-21.836c0,-12.682 -10.317,-23 -23,-23c-12.683,0 -23,10.318 -23,23c0,10.164 6.63,18.804 15.791,21.836z"></path>
      </g>
    </g>
  </symbol>
<symbol xmlns="http://www.w3.org/2000/svg" id="ua" viewBox="0 0 640 480">
  <g fill-rule="evenodd">
    <path fill="gold" d="M0 0h640v480H0z"/>
    <path fill="#0057b8" d="M0 0h640v240H0z"/>
  </g>
</symbol>
<symbol xmlns="http://www.w3.org/2000/svg" id="ru" viewBox="0 0 640 480">
  <g fill-rule="evenodd">
    <path fill="white" d="M0 0h640v480H0z"/>
    <path fill="white" d="M0 0h640v240H0z"/>
  </g>
</symbol>
<symbol xmlns="http://www.w3.org/2000/svg" id="pl" viewBox="0 0 640 480">
  <g fill-rule="evenodd">
 <path fill="#fff" d="M640 480H0V0h640z"/>
    <path fill="#dc143c" d="M640 480H0V240h640z"/>
  </g>
</symbol>
<symbol xmlns="http://www.w3.org/2000/svg" id="en" viewBox="0 0 640 480">
 <path fill="#012169" d="M0 0h640v480H0z"/>
  <path fill="#FFF" d="m75 0 244 181L562 0h78v62L400 241l240 178v61h-80L320 301 81 480H0v-60l239-178L0 64V0z"/>
  <path fill="#C8102E" d="m424 281 216 159v40L369 281zm-184 20 6 35L54 480H0zM640 0v3L391 191l2-44L590 0zM0 0l239 176h-60L0 42z"/>
  <path fill="#FFF" d="M241 0v480h160V0zM0 160v160h640V160z"/>
  <path fill="#C8102E" d="M0 193v96h640v-96zM273 0v480h96V0z"/>
</symbol>
  <symbol id="hamburger" version="1.1" xml:space="preserve" xmlns="http://www.w3.org/2000/svg" xmlns:xlink="http://www.w3.org/1999/xlink" viewBox="0 0 32 32">
    <path d="M4,10h24c1.104,0,2-0.896,2-2s-0.896-2-2-2H4C2.896,6,2,6.896,2,8S2.896,10,4,10z M28,14H4c-1.104,0-2,0.896-2,2  s0.896,2,2,2h24c1.104,0,2-0.896,2-2S29.104,14,28,14z M28,22H4c-1.104,0-2,0.896-2,2s0.896,2,2,2h24c1.104,0,2-0.896,2-2  S29.104,22,28,22z"></path>
  </symbol>
  <symbol xmlns="http://www.w3.org/2000/svg" xmlns:xlink="http://www.w3.org/1999/xlink" viewBox="0,0,256,256" id="linkedin">
    <g fill="currentColor" fill-rule="nonzero" stroke="none" stroke-width="1" stroke-linecap="butt" stroke-linejoin="miter" stroke-miterlimit="10" stroke-dasharray="" stroke-dashoffset="0" font-family="none" font-weight="none" font-size="none" text-anchor="none">
      <g transform="scale(5.12,5.12)">
        <path d="M41,4h-32c-2.76,0 -5,2.24 -5,5v32c0,2.76 2.24,5 5,5h32c2.76,0 5,-2.24 5,-5v-32c0,-2.76 -2.24,-5 -5,-5zM17,20v19h-6v-19zM11,14.47c0,-1.4 1.2,-2.47 3,-2.47c1.8,0 2.93,1.07 3,2.47c0,1.4 -1.12,2.53 -3,2.53c-1.8,0 -3,-1.13 -3,-2.53zM39,39h-6c0,0 0,-9.26 0,-10c0,-2 -1,-4 -3.5,-4.04h-0.08c-2.42,0 -3.42,2.06 -3.42,4.04c0,0.91 0,10 0,10h-6v-19h6v2.56c0,0 1.93,-2.56 5.81,-2.56c3.97,0 7.19,2.73 7.19,8.26z"></path>
      </g>
    </g>
  </symbol>
    <symbol role="img" xmlns="http://www.w3.org/2000/svg" viewBox="0 0 24 24" id="figma">
    <title>Figma</title>
    <path d="M15.852 8.981h-4.588V0h4.588c2.476 0 4.49 2.014 4.49 4.49s-2.014 4.491-4.49 4.491zM12.735 7.51h3.117c1.665 0 3.019-1.355 3.019-3.019s-1.355-3.019-3.019-3.019h-3.117V7.51zm0 1.471H8.148c-2.476 0-4.49-2.014-4.49-4.49S5.672 0 8.148 0h4.588v8.981zm-4.587-7.51c-1.665 0-3.019 1.355-3.019 3.019s1.354 3.02 3.019 3.02h3.117V1.471H8.148zm4.587 15.019H8.148c-2.476 0-4.49-2.014-4.49-4.49s2.014-4.49 4.49-4.49h4.588v8.98zM8.148 8.981c-1.665 0-3.019 1.355-3.019 3.019s1.355 3.019 3.019 3.019h3.117V8.981H8.148zM8.172 24c-2.489 0-4.515-2.014-4.515-4.49s2.014-4.49 4.49-4.49h4.588v4.441c0 2.503-2.047 4.539-4.563 4.539zm-.024-7.51a3.023 3.023 0 0 0-3.019 3.019c0 1.665 1.365 3.019 3.044 3.019 1.705 0 3.093-1.376 3.093-3.068v-2.97H8.148zm7.704 0h-.098c-2.476 0-4.49-2.014-4.49-4.49s2.014-4.49 4.49-4.49h.098c2.476 0 4.49 2.014 4.49 4.49s-2.014 4.49-4.49 4.49zm-.097-7.509c-1.665 0-3.019 1.355-3.019 3.019s1.355 3.019 3.019 3.019h.098c1.665 0 3.019-1.355 3.019-3.019s-1.355-3.019-3.019-3.019h-.098z"></path>
  </symbol>
  <symbol role="img" xmlns="http://www.w3.org/2000/svg" viewBox="0 0 24 24" id="nextdotjs">
    <title>Next.js</title>
    <path d="M11.5725 0c-.1763 0-.3098.0013-.3584.0067-.0516.0053-.2159.021-.3636.0328-3.4088.3073-6.6017 2.1463-8.624 4.9728C1.1004 6.584.3802 8.3666.1082 10.255c-.0962.659-.108.8537-.108 1.7474s.012 1.0884.108 1.7476c.652 4.506 3.8591 8.2919 8.2087 9.6945.7789.2511 1.6.4223 2.5337.5255.3636.04 1.9354.04 2.299 0 1.6117-.1783 2.9772-.577 4.3237-1.2643.2065-.1056.2464-.1337.2183-.1573-.0188-.0139-.8987-1.1938-1.9543-2.62l-1.919-2.592-2.4047-3.5583c-1.3231-1.9564-2.4117-3.556-2.4211-3.556-.0094-.0026-.0187 1.5787-.0235 3.509-.0067 3.3802-.0093 3.5162-.0516 3.596-.061.115-.108.1618-.2064.2134-.075.0374-.1408.0445-.495.0445h-.406l-.1078-.068a.4383.4383 0 01-.1572-.1712l-.0493-.1056.0053-4.703.0067-4.7054.0726-.0915c.0376-.0493.1174-.1125.1736-.143.0962-.047.1338-.0517.5396-.0517.4787 0 .5584.0187.6827.1547.0353.0377 1.3373 1.9987 2.895 4.3608a10760.433 10760.433 0 004.7344 7.1706l1.9002 2.8782.096-.0633c.8518-.5536 1.7525-1.3418 2.4657-2.1627 1.5179-1.7429 2.4963-3.868 2.8247-6.134.0961-.6591.1078-.854.1078-1.7475 0-.8937-.012-1.0884-.1078-1.7476-.6522-4.506-3.8592-8.2919-8.2087-9.6945-.7672-.2487-1.5836-.42-2.4985-.5232-.169-.0176-1.0835-.0366-1.6123-.037zm4.0685 7.217c.3473 0 .4082.0053.4857.047.1127.0562.204.1642.237.2767.0186.061.0234 1.3653.0186 4.3044l-.0067 4.2175-.7436-1.14-.7461-1.14v-3.066c0-1.982.0093-3.0963.0234-3.1502.0375-.1313.1196-.2346.2323-.2955.0961-.0494.1313-.054.4997-.054z"></path>
  </symbol>
  <symbol role="img" xmlns="http://www.w3.org/2000/svg" viewBox="0 0 24 24" id="radixui">
    <title>Radix UI</title>
    <path d="M11.52 24a7.68 7.68 0 0 1-7.68-7.68 7.68 7.68 0 0 1 7.68-7.68V24Zm0-24v7.68H3.84V0h7.68Zm4.8 7.68a3.84 3.84 0 1 1 0-7.68 3.84 3.84 0 0 1 0 7.68Z"></path>
  </symbol>
  <symbol role="img" xmlns="http://www.w3.org/2000/svg" viewBox="0 0 24 24" id="css">
    <title>CSS3</title>
    <path d="M1.5 0h21l-1.91 21.563L11.977 24l-8.565-2.438L1.5 0zm17.09 4.413L5.41 4.41l.213 2.622 10.125.002-.255 2.716h-6.64l.24 2.573h6.182l-.366 3.523-2.91.804-2.956-.81-.188-2.11h-2.61l.29 3.855L12 19.288l5.373-1.53L18.59 4.414z"></path>
  </symbol>
  <symbol role="img" xmlns="http://www.w3.org/2000/svg" viewBox="0 0 24 24" id="html">
    <title>HTML5</title>
    <path d="M1.5 0h21l-1.91 21.563L11.977 24l-8.564-2.438L1.5 0zm7.031 9.75l-.232-2.718 10.059.003.23-2.622L5.412 4.41l.698 8.01h9.126l-.326 3.426-2.91.804-2.955-.81-.188-2.11H6.248l.33 4.171L12 19.351l5.379-1.443.744-8.157H8.531z"></path>
  </symbol>
  <symbol role="img" xmlns="http://www.w3.org/2000/svg" viewBox="0 0 24 24" id="javascript">
    <title>JavaScript</title>
    <path d="M0 0h24v24H0V0zm22.034 18.276c-.175-1.095-.888-2.015-3.003-2.873-.736-.345-1.554-.585-1.797-1.14-.091-.33-.105-.51-.046-.705.15-.646.915-.84 1.515-.66.39.12.75.42.976.9 1.034-.676 1.034-.676 1.755-1.125-.27-.42-.404-.601-.586-.78-.63-.705-1.469-1.065-2.834-1.034l-.705.089c-.676.165-1.32.525-1.71 1.005-1.14 1.291-.811 3.541.569 4.471 1.365 1.02 3.361 1.244 3.616 2.205.24 1.17-.87 1.545-1.966 1.41-.811-.18-1.26-.586-1.755-1.336l-1.83 1.051c.21.48.45.689.81 1.109 1.74 1.756 6.09 1.666 6.871-1.004.029-.09.24-.705.074-1.65l.046.067zm-8.983-7.245h-2.248c0 1.938-.009 3.864-.009 5.805 0 1.232.063 2.363-.138 2.711-.33.689-1.18.601-1.566.48-.396-.196-.597-.466-.83-.855-.063-.105-.11-.196-.127-.196l-1.825 1.125c.305.63.75 1.172 1.324 1.517.855.51 2.004.675 3.207.405.783-.226 1.458-.691 1.811-1.411.51-.93.402-2.07.397-3.346.012-2.054 0-4.109 0-6.179l.004-.056z"></path>
  </symbol>
  <symbol role="img" xmlns="http://www.w3.org/2000/svg" viewBox="0 0 24 24" id="git">
    <title>Git</title>
    <path d="M23.546 10.93L13.067.452c-.604-.603-1.582-.603-2.188 0L8.708 2.627l2.76 2.76c.645-.215 1.379-.07 1.889.441.516.515.658 1.258.438 1.9l2.658 2.66c.645-.223 1.387-.078 1.9.435.721.72.721 1.884 0 2.604-.719.719-1.881.719-2.6 0-.539-.541-.674-1.337-.404-1.996L12.86 8.955v6.525c.176.086.342.203.488.348.713.721.713 1.883 0 2.6-.719.721-1.889.721-2.609 0-.719-.719-.719-1.879 0-2.598.182-.18.387-.316.605-.406V8.835c-.217-.091-.424-.222-.6-.401-.545-.545-.676-1.342-.396-2.009L7.636 3.7.45 10.881c-.6.605-.6 1.584 0 2.189l10.48 10.477c.604.604 1.582.604 2.186 0l10.43-10.43c.605-.603.605-1.582 0-2.187"></path>
  </symbol>
  <symbol role="img" xmlns="http://www.w3.org/2000/svg" viewBox="0 0 24 24" id="reactquery">
    <title>React Query</title>
    <path d="M6.9297 13.6875c.164-.0938.375-.0352.4687.1328l.0625.1055c.4805.8515.9805 1.6601 1.5 2.4258.6133.9023 1.3047 1.8164 2.0743 2.7421a.3455.3455 0 0 1-.0391.4844l-.0742.0664c-2.543 2.2227-4.1914 2.664-4.9532 1.332-.746-1.3046-.4765-3.6718.8086-7.1093a.3437.3437 0 0 1 .1524-.1797ZM17.75 16.3008c.1836-.0313.3594.086.3945.2695l.0196.1016c.6289 3.2851.1875 4.9297-1.3243 4.9297-1.4804 0-3.3593-1.4024-5.6484-4.2032a.3271.3271 0 0 1-.0742-.2226c0-.1875.1562-.3399.3437-.3399h.1211a32.9838 32.9838 0 0 0 2.8086-.0976c1.0703-.086 2.1914-.2305 3.3594-.4375zm.871-6.9766a.3528.3528 0 0 1 .4454-.211l.1016.0352c3.2617 1.1094 4.5039 2.332 3.7187 3.6641-.7656 1.3047-2.9922 2.254-6.6836 2.8477-.082.0117-.168-.004-.2383-.047-.168-.0976-.2265-.3085-.125-.4765l.0625-.1054c.504-.8438.957-1.6836 1.3672-2.5235.4766-.9883.9297-2.0508 1.3516-3.1836zM7.797 8.3398c.082-.0117.168.004.2383.047.168.0976.2265.3085.125.4765l-.0625.1054a34.0882 34.0882 0 0 0-1.3672 2.5235c-.4766.9883-.9297 2.0508-1.3516 3.1836a.3528.3528 0 0 1-.4453.211l-.1016-.0352c-3.2617-1.1094-4.5039-2.332-3.7187-3.6641.7656-1.3047 2.9922-2.254 6.6836-2.8477Zm5.2812-3.9843c2.543-2.2227 4.1914-2.664 4.9532-1.332.746 1.3046.4765 3.6718-.8086 7.1093a.3436.3436 0 0 1-.1524.1797c-.164.0938-.375.0352-.4687-.1328l-.0625-.1055c-.4805-.8515-.9805-1.6601-1.5-2.4258-.6133-.9023-1.3047-1.8164-2.0743-2.7421a.3455.3455 0 0 1 .0391-.4844Zm-5.793-2.082c1.4805 0 3.3633 1.4023 5.6485 4.203a.3488.3488 0 0 1 .0781.2188c-.0039.1914-.1562.3438-.3476.3438l-.1172-.004a34.5835 34.5835 0 0 0-2.8086.1016c-1.0742.086-2.1953.2305-3.3633.4375a.343.343 0 0 1-.3945-.2734l-.0196-.0977c-.629-3.2851-.1876-4.9297 1.3242-4.9297Zm2.8711 5.8124h3.6875a.638.638 0 0 1 .5508.3164l1.8477 3.2188a.6437.6437 0 0 1 0 .6289l-1.8477 3.2227a.638.638 0 0 1-.5507.3164h-3.6875c-.2266 0-.4375-.1211-.547-.3164L7.7579 12.25a.6437.6437 0 0 1 0-.629l1.8516-3.2187c.1093-.1953.3203-.3164.5468-.3164Zm3.2305.793a.638.638 0 0 1 .5508.3164l1.3906 2.4258a.6437.6437 0 0 1 0 .6289l-1.3906 2.4297a.638.638 0 0 1-.5508.3164h-2.7734c-.2266 0-.4375-.1211-.5469-.3164L8.672 12.25a.6437.6437 0 0 1 0-.629l1.3945-2.4257c.1094-.1953.3203-.3164.5469-.3164Zm-.4922.8672h-1.789c-.2266 0-.4336.1172-.547.3164l-.8983 1.5586a.6437.6437 0 0 0 0 .6289l.8984 1.5625a.6317.6317 0 0 0 .5469.3164h1.789a.6317.6317 0 0 0 .547-.3164l.8983-1.5625a.6437.6437 0 0 0 0-.629l-.8984-1.5585c-.1133-.1992-.3203-.3164-.5469-.3164Zm-.4765.8281c.2265 0 .4375.1211.5468.3164l.422.7305c.1132.1953.1132.4375 0 .6289l-.422.7344c-.1093.1953-.3203.3164-.5468.3164h-.836a.6317.6317 0 0 1-.5468-.3164l-.422-.7344c-.1132-.1914-.1132-.4336 0-.629l.422-.7304a.6317.6317 0 0 1 .5468-.3164zm-.418.8164a.548.548 0 0 0-.4727.2735c-.0976.168-.0976.375 0 .5468a.5444.5444 0 0 0 .4727.2696.5444.5444 0 0 0 .4727-.2696c.0976-.1718.0976-.3789 0-.5468A.548.548 0 0 0 12 11.3906Zm-4.4219.5469h.9805M18.9805 7.75c.3906-1.8945.4765-3.3438.2226-4.3984-.1484-.629-.4218-1.1368-.8398-1.5078-.4414-.3907-1-.582-1.625-.582-1.0352 0-2.1211.4726-3.2813 1.3671-.4726.3633-.9648.8047-1.4726 1.3164-.043-.0508-.086-.1015-.1367-.1445-1.4454-1.2852-2.6602-2.082-3.6993-2.3906-.6171-.1836-1.1953-.1993-1.7226-.0235-.5586.1875-1.004.5742-1.3164 1.1172-.5156.8945-.6524 2.0742-.461 3.5274.0782.5898.2149 1.2343.4024 1.9335a1.1187 1.1187 0 0 0-.2149.047C3.008 8.621 1.711 9.2694.9258 10.0155c-.4649.4414-.7695.9375-.8828 1.4805-.1133.5781 0 1.1562.3125 1.6992.5156.8945 1.4648 1.5977 2.8164 2.1563.543.2226 1.1562.4257 1.8437.6093a1.0227 1.0227 0 0 0-.0703.2266c-.3906 1.8906-.4765 3.3438-.2226 4.3945.1484.629.4257 1.1407.8398 1.5078.4414.3907 1 .582 1.625.582 1.0352 0 2.121-.4726 3.2813-1.3632.4765-.3711.9726-.8164 1.4882-1.336a1.2 1.2 0 0 0 .1953.2266c1.4454 1.2852 2.6602 2.082 3.6993 2.3906.6172.1836 1.1953.1993 1.7226.0235.5586-.1875 1.004-.5742 1.3164-1.1172.5157-.8945.6524-2.0742.461-3.5273-.082-.6133-.2227-1.2813-.4258-2.0118a1.2248 1.2248 0 0 0 .2383-.0468c1.828-.6094 3.125-1.2578 3.9101-2.004.4649-.4413.7696-.9374.8828-1.4804.1133-.5781 0-1.1563-.3125-1.6992-.5156-.8946-1.4648-1.5977-2.8164-2.1563-.5586-.2304-1.1953-.4414-1.9062-.625a.8647.8647 0 0 0 .0586-.1953z"></path>
  </symbol>
  <symbol role="img" xmlns="http://www.w3.org/2000/svg" viewBox="0 0 24 24" id="tailwindcss">
    <title>Tailwind CSS</title>
    <path d="M12.001,4.8c-3.2,0-5.2,1.6-6,4.8c1.2-1.6,2.6-2.2,4.2-1.8c0.913,0.228,1.565,0.89,2.288,1.624 C13.666,10.618,15.027,12,18.001,12c3.2,0,5.2-1.6,6-4.8c-1.2,1.6-2.6,2.2-4.2,1.8c-0.913-0.228-1.565-0.89-2.288-1.624 C16.337,6.182,14.976,4.8,12.001,4.8z M6.001,12c-3.2,0-5.2,1.6-6,4.8c1.2-1.6,2.6-2.2,4.2-1.8c0.913,0.228,1.565,0.89,2.288,1.624 c1.177,1.194,2.538,2.576,5.512,2.576c3.2,0,5.2-1.6,6-4.8c-1.2,1.6-2.6,2.2-4.2,1.8c-0.913-0.228-1.565-0.89-2.288-1.624 C10.337,13.382,8.976,12,6.001,12z"></path>
  </symbol>
<symbol xmlns="http://www.w3.org/2000/svg" xmlns:xlink="http://www.w3.org/1999/xlink" version="1.1" xml:space="preserve" viewBox="0 0 256 256" id="curved-arrow">
    <defs></defs>
    <g transform="translate(1.4065934065934016 1.4065934065934016) scale(2.81 2.81)">
      <path d="M 73.333 0.011 c -0.037 0.004 -0.072 0.014 -0.108 0.022 C 72.753 0.113 72.388 0.505 72.388 1 v 9.931 c 0 0.553 0.447 1 1 1 s 1 -0.447 1 -1 V 3.076 c 5.501 4.776 9.048 11.302 10.046 18.587 c 1.09 7.952 -0.986 15.859 -5.841 22.254 c -4.154 5.473 -9.92 9.281 -16.481 10.948 c -0.041 -0.421 -0.091 -0.843 -0.148 -1.264 c -1.161 -8.485 -5.558 -16.009 -12.38 -21.188 c -9.987 -7.582 -17.714 -6.48 -21.295 -3.233 c -3.588 3.254 -3.748 8.866 -0.406 14.297 c 1.684 2.737 4.168 5.361 7.381 7.8 c 6.821 5.179 15.25 7.39 23.735 6.229 c 0.422 -0.058 0.841 -0.124 1.258 -0.197 c 0.179 6.757 -1.96 13.345 -6.115 18.818 c -10.023 13.203 -28.918 15.79 -42.121 5.768 c -3.016 -2.289 -5.332 -4.731 -6.886 -7.256 c -0.289 -0.471 -0.905 -0.617 -1.376 -0.328 c -0.471 0.29 -0.618 0.907 -0.328 1.376 c 1.684 2.737 4.167 5.362 7.381 7.801 c 14.081 10.69 34.233 7.93 44.924 -6.151 c 4.508 -5.937 6.763 -13.087 6.511 -20.443 c 7.149 -1.729 13.433 -5.829 17.94 -11.766 c 4.277 -5.634 6.53 -12.366 6.53 -19.32 c 0 -1.464 -0.1 -2.94 -0.302 -4.416 C 85.381 13.84 81.78 7.054 76.193 2 h 7.127 c 0.553 0 1 -0.447 1 -1 s -0.447 -1 -1 -1 h -9.931 C 73.369 0 73.353 0.01 73.333 0.011 z M 58.728 55.524 c -7.955 1.09 -15.859 -0.985 -22.254 -5.84 c -3.016 -2.289 -5.332 -4.73 -6.887 -7.256 c -1.421 -2.308 -2.13 -4.583 -2.13 -6.608 c 0 -2.048 0.726 -3.842 2.177 -5.157 c 3.251 -2.95 10.308 -3.059 18.742 3.344 c 6.396 4.855 10.518 11.91 11.607 19.865 c 0.065 0.475 0.119 0.949 0.161 1.424 C 59.675 55.383 59.203 55.459 58.728 55.524 z" transform=" matrix(1 0 0 1 0 0) " stroke-linecap="round"></path>
    </g>
  </symbol>
  <symbol role="img" xmlns="http://www.w3.org/2000/svg" viewBox="0 0 24 24" id="react">
    <title>React</title>
    <path d="M14.23 12.004a2.236 2.236 0 0 1-2.235 2.236 2.236 2.236 0 0 1-2.236-2.236 2.236 2.236 0 0 1 2.235-2.236 2.236 2.236 0 0 1 2.236 2.236zm2.648-10.69c-1.346 0-3.107.96-4.888 2.622-1.78-1.653-3.542-2.602-4.887-2.602-.41 0-.783.093-1.106.278-1.375.793-1.683 3.264-.973 6.365C1.98 8.917 0 10.42 0 12.004c0 1.59 1.99 3.097 5.043 4.03-.704 3.113-.39 5.588.988 6.38.32.187.69.275 1.102.275 1.345 0 3.107-.96 4.888-2.624 1.78 1.654 3.542 2.603 4.887 2.603.41 0 .783-.09 1.106-.275 1.374-.792 1.683-3.263.973-6.365C22.02 15.096 24 13.59 24 12.004c0-1.59-1.99-3.097-5.043-4.032.704-3.11.39-5.587-.988-6.38-.318-.184-.688-.277-1.092-.278zm-.005 1.09v.006c.225 0 .406.044.558.127.666.382.955 1.835.73 3.704-.054.46-.142.945-.25 1.44-.96-.236-2.006-.417-3.107-.534-.66-.905-1.345-1.727-2.035-2.447 1.592-1.48 3.087-2.292 4.105-2.295zm-9.77.02c1.012 0 2.514.808 4.11 2.28-.686.72-1.37 1.537-2.02 2.442-1.107.117-2.154.298-3.113.538-.112-.49-.195-.964-.254-1.42-.23-1.868.054-3.32.714-3.707.19-.09.4-.127.563-.132zm4.882 3.05c.455.468.91.992 1.36 1.564-.44-.02-.89-.034-1.345-.034-.46 0-.915.01-1.36.034.44-.572.895-1.096 1.345-1.565zM12 8.1c.74 0 1.477.034 2.202.093.406.582.802 1.203 1.183 1.86.372.64.71 1.29 1.018 1.946-.308.655-.646 1.31-1.013 1.95-.38.66-.773 1.288-1.18 1.87-.728.063-1.466.098-2.21.098-.74 0-1.477-.035-2.202-.093-.406-.582-.802-1.204-1.183-1.86-.372-.64-.71-1.29-1.018-1.946.303-.657.646-1.313 1.013-1.954.38-.66.773-1.286 1.18-1.868.728-.064 1.466-.098 2.21-.098zm-3.635.254c-.24.377-.48.763-.704 1.16-.225.39-.435.782-.635 1.174-.265-.656-.49-1.31-.676-1.947.64-.15 1.315-.283 2.015-.386zm7.26 0c.695.103 1.365.23 2.006.387-.18.632-.405 1.282-.66 1.933-.2-.39-.41-.783-.64-1.174-.225-.392-.465-.774-.705-1.146zm3.063.675c.484.15.944.317 1.375.498 1.732.74 2.852 1.708 2.852 2.476-.005.768-1.125 1.74-2.857 2.475-.42.18-.88.342-1.355.493-.28-.958-.646-1.956-1.1-2.98.45-1.017.81-2.01 1.085-2.964zm-13.395.004c.278.96.645 1.957 1.1 2.98-.45 1.017-.812 2.01-1.086 2.964-.484-.15-.944-.318-1.37-.5-1.732-.737-2.852-1.706-2.852-2.474 0-.768 1.12-1.742 2.852-2.476.42-.18.88-.342 1.356-.494zm11.678 4.28c.265.657.49 1.312.676 1.948-.64.157-1.316.29-2.016.39.24-.375.48-.762.705-1.158.225-.39.435-.788.636-1.18zm-9.945.02c.2.392.41.783.64 1.175.23.39.465.772.705 1.143-.695-.102-1.365-.23-2.006-.386.18-.63.406-1.282.66-1.933zM17.92 16.32c.112.493.2.968.254 1.423.23 1.868-.054 3.32-.714 3.708-.147.09-.338.128-.563.128-1.012 0-2.514-.807-4.11-2.28.686-.72 1.37-1.536 2.02-2.44 1.107-.118 2.154-.3 3.113-.54zm-11.83.01c.96.234 2.006.415 3.107.532.66.905 1.345 1.727 2.035 2.446-1.595 1.483-3.092 2.295-4.11 2.295-.22-.005-.406-.05-.553-.132-.666-.38-.955-1.834-.73-3.703.054-.46.142-.944.25-1.438zm4.56.64c.44.02.89.034 1.345.034.46 0 .915-.01 1.36-.034-.44.572-.895 1.095-1.345 1.565-.455-.47-.91-.993-1.36-1.565z"></path>
  </symbol>
  <symbol role="img" xmlns="http://www.w3.org/2000/svg" viewBox="0 0 24 24" id="redux">
    <title>Redux</title>
    <path d="M16.634 16.504c.87-.075 1.543-.84 1.5-1.754-.047-.914-.796-1.648-1.709-1.648h-.061a1.71 1.71 0 00-1.648 1.769c.03.479.226.869.494 1.153-1.048 2.038-2.621 3.536-5.005 4.795-1.603.838-3.296 1.154-4.944.93-1.378-.195-2.456-.81-3.116-1.799-.988-1.499-1.078-3.116-.255-4.734.6-1.17 1.499-2.023 2.099-2.443a9.96 9.96 0 01-.42-1.543C-.868 14.408-.416 18.752.932 20.805c1.004 1.498 3.057 2.456 5.304 2.456.6 0 1.23-.044 1.843-.194 3.897-.749 6.848-3.086 8.541-6.532zm5.348-3.746c-2.32-2.728-5.738-4.226-9.634-4.226h-.51c-.253-.554-.837-.899-1.498-.899h-.045c-.943 0-1.678.81-1.647 1.753.03.898.794 1.648 1.708 1.648h.074a1.69 1.69 0 001.499-1.049h.555c2.309 0 4.495.674 6.488 1.992 1.527 1.005 2.622 2.323 3.237 3.897.538 1.288.509 2.547-.045 3.597-.855 1.647-2.294 2.517-4.196 2.517-1.199 0-2.367-.375-2.967-.644-.36.298-.96.793-1.394 1.093 1.318.598 2.652.943 3.94.943 2.922 0 5.094-1.647 5.919-3.236.898-1.798.824-4.824-1.47-7.416zM6.49 17.042c.03.899.793 1.648 1.708 1.648h.06a1.688 1.688 0 001.648-1.768c0-.9-.779-1.647-1.693-1.647h-.06c-.06 0-.15 0-.226.029-1.243-2.098-1.768-4.347-1.572-6.772.12-1.828.72-3.417 1.797-4.735.9-1.124 2.593-1.68 3.747-1.708 3.236-.061 4.585 3.971 4.689 5.574l1.498.45C17.741 3.197 14.686.62 11.764.62 9.02.62 6.49 2.613 5.47 5.535 4.077 9.43 4.991 13.177 6.7 16.174c-.15.195-.24.539-.21.868z"></path>
  </symbol>
  <symbol role="img" xmlns="http://www.w3.org/2000/svg" viewBox="0 0 24 24" id="typescript">
    <title>TypeScript</title>
    <path d="M1.125 0C.502 0 0 .502 0 1.125v21.75C0 23.498.502 24 1.125 24h21.75c.623 0 1.125-.502 1.125-1.125V1.125C24 .502 23.498 0 22.875 0zm17.363 9.75c.612 0 1.154.037 1.627.111a6.38 6.38 0 0 1 1.306.34v2.458a3.95 3.95 0 0 0-.643-.361 5.093 5.093 0 0 0-.717-.26 5.453 5.453 0 0 0-1.426-.2c-.3 0-.573.028-.819.086a2.1 2.1 0 0 0-.623.242c-.17.104-.3.229-.393.374a.888.888 0 0 0-.14.49c0 .196.053.373.156.529.104.156.252.304.443.444s.423.276.696.41c.273.135.582.274.926.416.47.197.892.407 1.266.628.374.222.695.473.963.753.268.279.472.598.614.957.142.359.214.776.214 1.253 0 .657-.125 1.21-.373 1.656a3.033 3.033 0 0 1-1.012 1.085 4.38 4.38 0 0 1-1.487.596c-.566.12-1.163.18-1.79.18a9.916 9.916 0 0 1-1.84-.164 5.544 5.544 0 0 1-1.512-.493v-2.63a5.033 5.033 0 0 0 3.237 1.2c.333 0 .624-.03.872-.09.249-.06.456-.144.623-.25.166-.108.29-.234.373-.38a1.023 1.023 0 0 0-.074-1.089 2.12 2.12 0 0 0-.537-.5 5.597 5.597 0 0 0-.807-.444 27.72 27.72 0 0 0-1.007-.436c-.918-.383-1.602-.852-2.053-1.405-.45-.553-.676-1.222-.676-2.005 0-.614.123-1.141.369-1.582.246-.441.58-.804 1.004-1.089a4.494 4.494 0 0 1 1.47-.629 7.536 7.536 0 0 1 1.77-.201zm-15.113.188h9.563v2.166H9.506v9.646H6.789v-9.646H3.375z"></path>
  </symbol>
<symbol role="img" xmlns="http://www.w3.org/2000/svg" viewBox="0 0 24 24" id="reacthookform">
    <title>React Hook Form</title>
    <path d="M10.7754 17.3477H5.8065a.2815.2815 0 1 0 0 .563h4.9689a.2815.2815 0 1 0 0-.563zm7.3195 0h-4.9688a.2815.2815 0 1 0 0 .563h4.9688a.2815.2815 0 0 0 0-.563zm-7.3336-6.475H5.8065a.2815.2815 0 1 0 0 .563h4.9548a.2815.2815 0 1 0 0-.563zm7.3195 0h-4.9547a.2815.2815 0 1 0 0 .563h4.9547a.2815.2815 0 0 0 0-.563zm.5518-9.2001h-4.341a2.4042 2.4042 0 0 0-4.5804 0H5.3674c-1.7103 0-3.0968 1.3864-3.0968 3.0967v16.134C2.2706 22.6135 3.6571 24 5.3674 24h13.2652c1.7103 0 3.0968-1.3865 3.0968-3.0967V4.7693c0-1.7103-1.3865-3.0967-3.0968-3.0967zm-8.7046.563a.2815.2815 0 0 0 .2815-.2224 1.8411 1.8411 0 0 1 3.5979 0 .2815.2815 0 0 0 .2815.2224h1.5146v1.844a.8446.8446 0 0 1-.8446.8446H9.2552a.8446.8446 0 0 1-.8446-.8446v-1.844Zm11.2383 18.6677c0 1.3993-1.1344 2.5337-2.5337 2.5337H5.3674c-1.3993 0-2.5337-1.1344-2.5337-2.5337V4.7693c0-1.3993 1.1344-2.5337 2.5337-2.5337h2.4802v1.844c0 .7774.6302 1.4076 1.4076 1.4076h5.4896c.7774 0 1.4076-.6302 1.4076-1.4076v-1.844h2.4802c1.3993 0 2.5337 1.1344 2.5337 2.5337z"></path>
  </symbol>
  <symbol role="img" xmlns="http://www.w3.org/2000/svg" viewBox="0 0 24 24" id="vim">
    <title>Vim</title>
    <path d="M24 11.986h-.027l-4.318-4.318 4.303-4.414V1.461l-.649-.648h-8.198l-.66.605v1.045L12.015.027V0L12 .014 11.986 0v.027l-1.29 1.291-.538-.539H2.035l-.638.692v1.885l.616.616h.72v5.31L.027 11.987H0L.014 12 0 12.014h.027l2.706 2.706v6.467l.907.523h2.322l1.857-1.904 4.166 4.166V24l.015-.014.014.014v-.028l2.51-2.509h.485c.111 0 .211-.07.25-.179l.146-.426c.028-.084.012-.172-.037-.239l1.462-1.462-.612 1.962c-.043.141.036.289.177.332.025.008.052.012.078.012h1.824c.106-.001.201-.064.243-.163l.165-.394c.025-.065.024-.138-.004-.203-.027-.065-.08-.116-.146-.142-.029-.012-.062-.019-.097-.02h-.075l.84-2.644h1.232l-1.016 3.221c-.043.141.036.289.176.332.025.008.052.012.079.012h2.002c.11 0 .207-.066.248-.17l.164-.428c.051-.138-.021-.29-.158-.341-.029-.011-.06-.017-.091-.017h-.145l1.131-3.673c.027-.082.012-.173-.039-.24l-.375-.504-.003-.005c-.051-.064-.127-.102-.209-.102h-1.436c-.071 0-.141.03-.19.081l-.4.439h-.624l-.042-.046 4.445-4.445H24L23.986 12l.014-.014zM9.838 21.139l1.579-4.509h-.501l.297-.304h1.659l-1.563 4.555h.623l-.079.258H9.838zm3.695-7.516l.15.151-.269.922-.225.226h-.969l-.181-.181.311-.871.288-.247h.895zM5.59 20.829H3.877l-.262-.15V3.091H2.379l-.1-.1V1.815l.143-.154h7.371l.213.214v1.108l-.142.173H8.785v8.688l8.807-8.688h-2.086l-.175-.188V1.805l.121-.111h7.49l.132.133v1.07L12.979 13.25h-.373c-.015-.001-.028 0-.042.001l-.02.003c-.045.01-.086.03-.119.06l-.343.295-.004.003c-.033.031-.059.069-.073.111l-.296.83-6.119 6.276zm14.768-3.952l.474-.519h1.334l.309.415-1.265 4.107h.493l-.08.209H19.84l1.124-3.564h-2.015l-1.077 3.391h.424l-.073.174h-1.605l1.107-3.548h-2.096l-1.062 3.339h.436l-.072.209H13.27l1.514-4.46H14.198l.091-.271h1.65l.519.537h.906l.491-.554h1.061l.489.535h.953z"></path>
  </symbol>
  <symbol role="img" xmlns="http://www.w3.org/2000/svg" viewBox="0 0 24 24" id="zod">
    <title>Zod</title>
    <path d="M19.088 2.477 24 7.606 12.521 20.485l-.925 1.038L0 7.559l5.108-5.082h13.98Zm-17.434 5.2 6.934-4.003H5.601L1.619 7.636l.035.041Zm12.117-4.003L3.333 9.7l2.149 2.588 10.809-6.241-.2-.346 2.851-1.646-.365-.381h-4.806Zm7.52 2.834L8.257 14.034h5.101v-.4h3.667l5.346-5.998-1.08-1.128Zm-7.129 10.338H9.268l2.36 2.843 2.534-2.843Z"></path>
  </symbol>
</svg>
