<svg width="0" height="0" class="hidden">
  <symbol xmlns="http://www.w3.org/2000/svg" xmlns:xlink="http://www.w3.org/1999/xlink" viewBox="0,0,256,256" id="github">
    <g fill="currentColor" fill-rule="nonzero" stroke="none" stroke-width="1" stroke-linecap="butt" stroke-linejoin="miter" stroke-miterlimit="10" stroke-dasharray="" stroke-dashoffset="0" font-family="none" font-weight="none" font-size="none" text-anchor="none">
      <g transform="scale(5.12,5.12)">
        <path d="M17.791,46.836c0.711,-0.306 1.209,-1.013 1.209,-1.836v-5.4c0,-0.197 0.016,-0.402 0.041,-0.61c-0.014,0.004 -0.027,0.007 -0.041,0.01c0,0 -3,0 -3.6,0c-1.5,0 -2.8,-0.6 -3.4,-1.8c-0.7,-1.3 -1,-3.5 -2.8,-4.7c-0.3,-0.2 -0.1,-0.5 0.5,-0.5c0.6,0.1 1.9,0.9 2.7,2c0.9,1.1 1.8,2 3.4,2c2.487,0 3.82,-0.125 4.622,-0.555c0.934,-1.389 2.227,-2.445 3.578,-2.445v-0.025c-5.668,-0.182 -9.289,-2.066 -10.975,-4.975c-3.665,0.042 -6.856,0.405 -8.677,0.707c-0.058,-0.327 -0.108,-0.656 -0.151,-0.987c1.797,-0.296 4.843,-0.647 8.345,-0.714c-0.112,-0.276 -0.209,-0.559 -0.291,-0.849c-3.511,-0.178 -6.541,-0.039 -8.187,0.097c-0.02,-0.332 -0.047,-0.663 -0.051,-0.999c1.649,-0.135 4.597,-0.27 8.018,-0.111c-0.079,-0.5 -0.13,-1.011 -0.13,-1.543c0,-1.7 0.6,-3.5 1.7,-5c-0.5,-1.7 -1.2,-5.3 0.2,-6.6c2.7,0 4.6,1.3 5.5,2.1c1.699,-0.701 3.599,-1.101 5.699,-1.101c2.1,0 4,0.4 5.6,1.1c0.9,-0.8 2.8,-2.1 5.5,-2.1c1.5,1.4 0.7,5 0.2,6.6c1.1,1.5 1.7,3.2 1.6,5c0,0.484 -0.045,0.951 -0.11,1.409c3.499,-0.172 6.527,-0.034 8.204,0.102c-0.002,0.337 -0.033,0.666 -0.051,0.999c-1.671,-0.138 -4.775,-0.28 -8.359,-0.089c-0.089,0.336 -0.197,0.663 -0.325,0.98c3.546,0.046 6.665,0.389 8.548,0.689c-0.043,0.332 -0.093,0.661 -0.151,0.987c-1.912,-0.306 -5.171,-0.664 -8.879,-0.682c-1.665,2.878 -5.22,4.755 -10.777,4.974v0.031c2.6,0 5,3.9 5,6.6v5.4c0,0.823 0.498,1.53 1.209,1.836c9.161,-3.032 15.791,-11.672 15.791,-21.836c0,-12.682 -10.317,-23 -23,-23c-12.683,0 -23,10.318 -23,23c0,10.164 6.63,18.804 15.791,21.836z"></path>
      </g>
    </g>
  </symbol>
<symbol xmlns="http://www.w3.org/2000/svg" id="ua" viewBox="0 0 640 480">
  <g fill-rule="evenodd">
    <path fill="gold" d="M0 0h640v480H0z"/>
    <path fill="#0057b8" d="M0 0h640v240H0z"/>
  </g>
</symbol>
<symbol xmlns="http://www.w3.org/2000/svg" id="pl" viewBox="0 0 640 480">
  <g fill-rule="evenodd">
 <path fill="#fff" d="M640 480H0V0h640z"/>
    <path fill="#dc143c" d="M640 480H0V240h640z"/>
  </g>
</symbol>
<symbol xmlns="http://www.w3.org/2000/svg" id="en" viewBox="0 0 640 480">
 <path fill="#012169" d="M0 0h640v480H0z"/>
  <path fill="#FFF" d="m75 0 244 181L562 0h78v62L400 241l240 178v61h-80L320 301 81 480H0v-60l239-178L0 64V0z"/>
  <path fill="#C8102E" d="m424 281 216 159v40L369 281zm-184 20 6 35L54 480H0zM640 0v3L391 191l2-44L590 0zM0 0l239 176h-60L0 42z"/>
  <path fill="#FFF" d="M241 0v480h160V0zM0 160v160h640V160z"/>
  <path fill="#C8102E" d="M0 193v96h640v-96zM273 0v480h96V0z"/>
</symbol>
  <symbol id="hamburger" version="1.1" xml:space="preserve" xmlns="http://www.w3.org/2000/svg" xmlns:xlink="http://www.w3.org/1999/xlink" viewBox="0 0 32 32">
    <path d="M4,10h24c1.104,0,2-0.896,2-2s-0.896-2-2-2H4C2.896,6,2,6.896,2,8S2.896,10,4,10z M28,14H4c-1.104,0-2,0.896-2,2  s0.896,2,2,2h24c1.104,0,2-0.896,2-2S29.104,14,28,14z M28,22H4c-1.104,0-2,0.896-2,2s0.896,2,2,2h24c1.104,0,2-0.896,2-2  S29.104,22,28,22z"></path>
  </symbol>
  <symbol xmlns="http://www.w3.org/2000/svg" xmlns:xlink="http://www.w3.org/1999/xlink" viewBox="0,0,256,256" id="linkedin">
    <g fill="currentColor" fill-rule="nonzero" stroke="none" stroke-width="1" stroke-linecap="butt" stroke-linejoin="miter" stroke-miterlimit="10" stroke-dasharray="" stroke-dashoffset="0" font-family="none" font-weight="none" font-size="none" text-anchor="none">
      <g transform="scale(5.12,5.12)">
        <path d="M41,4h-32c-2.76,0 -5,2.24 -5,5v32c0,2.76 2.24,5 5,5h32c2.76,0 5,-2.24 5,-5v-32c0,-2.76 -2.24,-5 -5,-5zM17,20v19h-6v-19zM11,14.47c0,-1.4 1.2,-2.47 3,-2.47c1.8,0 2.93,1.07 3,2.47c0,1.4 -1.12,2.53 -3,2.53c-1.8,0 -3,-1.13 -3,-2.53zM39,39h-6c0,0 0,-9.26 0,-10c0,-2 -1,-4 -3.5,-4.04h-0.08c-2.42,0 -3.42,2.06 -3.42,4.04c0,0.91 0,10 0,10h-6v-19h6v2.56c0,0 1.93,-2.56 5.81,-2.56c3.97,0 7.19,2.73 7.19,8.26z"></path>
      </g>
    </g>
  </symbol>
  <symbol role="img" xmlns="http://www.w3.org/2000/svg" viewBox="0 0 24 24" id="nextdotjs">
    <title>Next.js</title>
    <path d="M11.5725 0c-.1763 0-.3098.0013-.3584.0067-.0516.0053-.2159.021-.3636.0328-3.4088.3073-6.6017 2.1463-8.624 4.9728C1.1004 6.584.3802 8.3666.1082 10.255c-.0962.659-.108.8537-.108 1.7474s.012 1.0884.108 1.7476c.652 4.506 3.8591 8.2919 8.2087 9.6945.7789.2511 1.6.4223 2.5337.5255.3636.04 1.9354.04 2.299 0 1.6117-.1783 2.9772-.577 4.3237-1.2643.2065-.1056.2464-.1337.2183-.1573-.0188-.0139-.8987-1.1938-1.9543-2.62l-1.919-2.592-2.4047-3.5583c-1.3231-1.9564-2.4117-3.556-2.4211-3.556-.0094-.0026-.0187 1.5787-.0235 3.509-.0067 3.3802-.0093 3.5162-.0516 3.596-.061.115-.108.1618-.2064.2134-.075.0374-.1408.0445-.495.0445h-.406l-.1078-.068a.4383.4383 0 01-.1572-.1712l-.0493-.1056.0053-4.703.0067-4.7054.0726-.0915c.0376-.0493.1174-.1125.1736-.143.0962-.047.1338-.0517.5396-.0517.4787 0 .5584.0187.6827.1547.0353.0377 1.3373 1.9987 2.895 4.3608a10760.433 10760.433 0 004.7344 7.1706l1.9002 2.8782.096-.0633c.8518-.5536 1.7525-1.3418 2.4657-2.1627 1.5179-1.7429 2.4963-3.868 2.8247-6.134.0961-.6591.1078-.854.1078-1.7475 0-.8937-.012-1.0884-.1078-1.7476-.6522-4.506-3.8592-8.2919-8.2087-9.6945-.7672-.2487-1.5836-.42-2.4985-.5232-.169-.0176-1.0835-.0366-1.6123-.037zm4.0685 7.217c.3473 0 .4082.0053.4857.047.1127.0562.204.1642.237.2767.0186.061.0234 1.3653.0186 4.3044l-.0067 4.2175-.7436-1.14-.7461-1.14v-3.066c0-1.982.0093-3.0963.0234-3.1502.0375-.1313.1196-.2346.2323-.2955.0961-.0494.1313-.054.4997-.054z"></path>
  </symbol>
  <symbol role="img" xmlns="http://www.w3.org/2000/svg" viewBox="0 0 24 24" id="css">
    <title>CSS3</title>
    <path d="M1.5 0h21l-1.91 21.563L11.977 24l-8.565-2.438L1.5 0zm17.09 4.413L5.41 4.41l.213 2.622 10.125.002-.255 2.716h-6.64l.24 2.573h6.182l-.366 3.523-2.91.804-2.956-.81-.188-2.11h-2.61l.29 3.855L12 19.288l5.373-1.53L18.59 4.414z"></path>
  </symbol>
  <symbol role="img" xmlns="http://www.w3.org/2000/svg" viewBox="0 0 24 24" id="html">
    <title>HTML5</title>
    <path d="M1.5 0h21l-1.91 21.563L11.977 24l-8.564-2.438L1.5 0zm7.031 9.75l-.232-2.718 10.059.003.23-2.622L5.412 4.41l.698 8.01h9.126l-.326 3.426-2.91.804-2.955-.81-.188-2.11H6.248l.33 4.171L12 19.351l5.379-1.443.744-8.157H8.531z"></path>
  </symbol>
  <symbol role="img" xmlns="http://www.w3.org/2000/svg" viewBox="0 0 24 24" id="git">
    <title>Git</title>
    <path d="M23.546 10.93L13.067.452c-.604-.603-1.582-.603-2.188 0L8.708 2.627l2.76 2.76c.645-.215 1.379-.07 1.889.441.516.515.658 1.258.438 1.9l2.658 2.66c.645-.223 1.387-.078 1.9.435.721.72.721 1.884 0 2.604-.719.719-1.881.719-2.6 0-.539-.541-.674-1.337-.404-1.996L12.86 8.955v6.525c.176.086.342.203.488.348.713.721.713 1.883 0 2.6-.719.721-1.889.721-2.609 0-.719-.719-.719-1.879 0-2.598.182-.18.387-.316.605-.406V8.835c-.217-.091-.424-.222-.6-.401-.545-.545-.676-1.342-.396-2.009L7.636 3.7.45 10.881c-.6.605-.6 1.584 0 2.189l10.48 10.477c.604.604 1.582.604 2.186 0l10.43-10.43c.605-.603.605-1.582 0-2.187"></path>
  </symbol>
  <symbol role="img" xmlns="http://www.w3.org/2000/svg" viewBox="0 0 24 24" id="tailwindcss">
    <title>Tailwind CSS</title>
    <path d="M12.001,4.8c-3.2,0-5.2,1.6-6,4.8c1.2-1.6,2.6-2.2,4.2-1.8c0.913,0.228,1.565,0.89,2.288,1.624 C13.666,10.618,15.027,12,18.001,12c3.2,0,5.2-1.6,6-4.8c-1.2,1.6-2.6,2.2-4.2,1.8c-0.913-0.228-1.565-0.89-2.288-1.624 C16.337,6.182,14.976,4.8,12.001,4.8z M6.001,12c-3.2,0-5.2,1.6-6,4.8c1.2-1.6,2.6-2.2,4.2-1.8c0.913,0.228,1.565,0.89,2.288,1.624 c1.177,1.194,2.538,2.576,5.512,2.576c3.2,0,5.2-1.6,6-4.8c-1.2,1.6-2.6,2.2-4.2,1.8c-0.913-0.228-1.565-0.89-2.288-1.624 C10.337,13.382,8.976,12,6.001,12z"></path>
  </symbol>
  <symbol role="img" xmlns="http://www.w3.org/2000/svg" viewBox="0 0 24 24" id="react">
    <title>React</title>
    <path d="M14.23 12.004a2.236 2.236 0 0 1-2.235 2.236 2.236 2.236 0 0 1-2.236-2.236 2.236 2.236 0 0 1 2.235-2.236 2.236 2.236 0 0 1 2.236 2.236zm2.648-10.69c-1.346 0-3.107.96-4.888 2.622-1.78-1.653-3.542-2.602-4.887-2.602-.41 0-.783.093-1.106.278-1.375.793-1.683 3.264-.973 6.365C1.98 8.917 0 10.42 0 12.004c0 1.59 1.99 3.097 5.043 4.03-.704 3.113-.39 5.588.988 6.38.32.187.69.275 1.102.275 1.345 0 3.107-.96 4.888-2.624 1.78 1.654 3.542 2.603 4.887 2.603.41 0 .783-.09 1.106-.275 1.374-.792 1.683-3.263.973-6.365C22.02 15.096 24 13.59 24 12.004c0-1.59-1.99-3.097-5.043-4.032.704-3.11.39-5.587-.988-6.38-.318-.184-.688-.277-1.092-.278zm-.005 1.09v.006c.225 0 .406.044.558.127.666.382.955 1.835.73 3.704-.054.46-.142.945-.25 1.44-.96-.236-2.006-.417-3.107-.534-.66-.905-1.345-1.727-2.035-2.447 1.592-1.48 3.087-2.292 4.105-2.295zm-9.77.02c1.012 0 2.514.808 4.11 2.28-.686.72-1.37 1.537-2.02 2.442-1.107.117-2.154.298-3.113.538-.112-.49-.195-.964-.254-1.42-.23-1.868.054-3.32.714-3.707.19-.09.4-.127.563-.132zm4.882 3.05c.455.468.91.992 1.36 1.564-.44-.02-.89-.034-1.345-.034-.46 0-.915.01-1.36.034.44-.572.895-1.096 1.345-1.565zM12 8.1c.74 0 1.477.034 2.202.093.406.582.802 1.203 1.183 1.86.372.64.71 1.29 1.018 1.946-.308.655-.646 1.31-1.013 1.95-.38.66-.773 1.288-1.18 1.87-.728.063-1.466.098-2.21.098-.74 0-1.477-.035-2.202-.093-.406-.582-.802-1.204-1.183-1.86-.372-.64-.71-1.29-1.018-1.946.303-.657.646-1.313 1.013-1.954.38-.66.773-1.286 1.18-1.868.728-.064 1.466-.098 2.21-.098zm-3.635.254c-.24.377-.48.763-.704 1.16-.225.39-.435.782-.635 1.174-.265-.656-.49-1.31-.676-1.947.64-.15 1.315-.283 2.015-.386zm7.26 0c.695.103 1.365.23 2.006.387-.18.632-.405 1.282-.66 1.933-.2-.39-.41-.783-.64-1.174-.225-.392-.465-.774-.705-1.146zm3.063.675c.484.15.944.317 1.375.498 1.732.74 2.852 1.708 2.852 2.476-.005.768-1.125 1.74-2.857 2.475-.42.18-.88.342-1.355.493-.28-.958-.646-1.956-1.1-2.98.45-1.017.81-2.01 1.085-2.964zm-13.395.004c.278.96.645 1.957 1.1 2.98-.45 1.017-.812 2.01-1.086 2.964-.484-.15-.944-.318-1.37-.5-1.732-.737-2.852-1.706-2.852-2.474 0-.768 1.12-1.742 2.852-2.476.42-.18.88-.342 1.356-.494zm11.678 4.28c.265.657.49 1.312.676 1.948-.64.157-1.316.29-2.016.39.24-.375.48-.762.705-1.158.225-.39.435-.788.636-1.18zm-9.945.02c.2.392.41.783.64 1.175.23.39.465.772.705 1.143-.695-.102-1.365-.23-2.006-.386.18-.63.406-1.282.66-1.933zM17.92 16.32c.112.493.2.968.254 1.423.23 1.868-.054 3.32-.714 3.708-.147.09-.338.128-.563.128-1.012 0-2.514-.807-4.11-2.28.686-.72 1.37-1.536 2.02-2.44 1.107-.118 2.154-.3 3.113-.54zm-11.83.01c.96.234 2.006.415 3.107.532.66.905 1.345 1.727 2.035 2.446-1.595 1.483-3.092 2.295-4.11 2.295-.22-.005-.406-.05-.553-.132-.666-.38-.955-1.834-.73-3.703.054-.46.142-.944.25-1.438zm4.56.64c.44.02.89.034 1.345.034.46 0 .915-.01 1.36-.034-.44.572-.895 1.095-1.345 1.565-.455-.47-.91-.993-1.36-1.565z"></path>
  </symbol>
  <symbol role="img" xmlns="http://www.w3.org/2000/svg" viewBox="0 0 24 24" id="typescript">
    <title>TypeScript</title>
    <path d="M1.125 0C.502 0 0 .502 0 1.125v21.75C0 23.498.502 24 1.125 24h21.75c.623 0 1.125-.502 1.125-1.125V1.125C24 .502 23.498 0 22.875 0zm17.363 9.75c.612 0 1.154.037 1.627.111a6.38 6.38 0 0 1 1.306.34v2.458a3.95 3.95 0 0 0-.643-.361 5.093 5.093 0 0 0-.717-.26 5.453 5.453 0 0 0-1.426-.2c-.3 0-.573.028-.819.086a2.1 2.1 0 0 0-.623.242c-.17.104-.3.229-.393.374a.888.888 0 0 0-.14.49c0 .196.053.373.156.529.104.156.252.304.443.444s.423.276.696.41c.273.135.582.274.926.416.47.197.892.407 1.266.628.374.222.695.473.963.753.268.279.472.598.614.957.142.359.214.776.214 1.253 0 .657-.125 1.21-.373 1.656a3.033 3.033 0 0 1-1.012 1.085 4.38 4.38 0 0 1-1.487.596c-.566.12-1.163.18-1.79.18a9.916 9.916 0 0 1-1.84-.164 5.544 5.544 0 0 1-1.512-.493v-2.63a5.033 5.033 0 0 0 3.237 1.2c.333 0 .624-.03.872-.09.249-.06.456-.144.623-.25.166-.108.29-.234.373-.38a1.023 1.023 0 0 0-.074-1.089 2.12 2.12 0 0 0-.537-.5 5.597 5.597 0 0 0-.807-.444 27.72 27.72 0 0 0-1.007-.436c-.918-.383-1.602-.852-2.053-1.405-.45-.553-.676-1.222-.676-2.005 0-.614.123-1.141.369-1.582.246-.441.58-.804 1.004-1.089a4.494 4.494 0 0 1 1.47-.629 7.536 7.536 0 0 1 1.77-.201zm-15.113.188h9.563v2.166H9.506v9.646H6.789v-9.646H3.375z"></path>
  </symbol>
  <symbol role="img" xmlns="http://www.w3.org/2000/svg" viewBox="0 0 24 24" id="vim">
    <title>Vim</title>
    <path d="M24 11.986h-.027l-4.318-4.318 4.303-4.414V1.461l-.649-.648h-8.198l-.66.605v1.045L12.015.027V0L12 .014 11.986 0v.027l-1.29 1.291-.538-.539H2.035l-.638.692v1.885l.616.616h.72v5.31L.027 11.987H0L.014 12 0 12.014h.027l2.706 2.706v6.467l.907.523h2.322l1.857-1.904 4.166 4.166V24l.015-.014.014.014v-.028l2.51-2.509h.485c.111 0 .211-.07.25-.179l.146-.426c.028-.084.012-.172-.037-.239l1.462-1.462-.612 1.962c-.043.141.036.289.177.332.025.008.052.012.078.012h1.824c.106-.001.201-.064.243-.163l.165-.394c.025-.065.024-.138-.004-.203-.027-.065-.08-.116-.146-.142-.029-.012-.062-.019-.097-.02h-.075l.84-2.644h1.232l-1.016 3.221c-.043.141.036.289.176.332.025.008.052.012.079.012h2.002c.11 0 .207-.066.248-.17l.164-.428c.051-.138-.021-.29-.158-.341-.029-.011-.06-.017-.091-.017h-.145l1.131-3.673c.027-.082.012-.173-.039-.24l-.375-.504-.003-.005c-.051-.064-.127-.102-.209-.102h-1.436c-.071 0-.141.03-.19.081l-.4.439h-.624l-.042-.046 4.445-4.445H24L23.986 12l.014-.014zM9.838 21.139l1.579-4.509h-.501l.297-.304h1.659l-1.563 4.555h.623l-.079.258H9.838zm3.695-7.516l.15.151-.269.922-.225.226h-.969l-.181-.181.311-.871.288-.247h.895zM5.59 20.829H3.877l-.262-.15V3.091H2.379l-.1-.1V1.815l.143-.154h7.371l.213.214v1.108l-.142.173H8.785v8.688l8.807-8.688h-2.086l-.175-.188V1.805l.121-.111h7.49l.132.133v1.07L12.979 13.25h-.373c-.015-.001-.028 0-.042.001l-.02.003c-.045.01-.086.03-.119.06l-.343.295-.004.003c-.033.031-.059.069-.073.111l-.296.83-6.119 6.276zm14.768-3.952l.474-.519h1.334l.309.415-1.265 4.107h.493l-.08.209H19.84l1.124-3.564h-2.015l-1.077 3.391h.424l-.073.174h-1.605l1.107-3.548h-2.096l-1.062 3.339h.436l-.072.209H13.27l1.514-4.46H14.198l.091-.271h1.65l.519.537h.906l.491-.554h1.061l.489.535h.953z"></path>
  </symbol>
  <symbol xmlns="http://www.w3.org/2000/svg" viewBox="0 0 48 48" id="twitter">
    <path fill="currentColor" d="M 11 4 C 7.1456661 4 4 7.1456661 4 11 L 4 39 C 4 42.854334 7.1456661 46 11 46 L 39 46 C 42.854334 46 46 42.854334 46 39 L 46 11 C 46 7.1456661 42.854334 4 39 4 L 11 4 z M 11 6 L 39 6 C 41.773666 6 44 8.2263339 44 11 L 44 39 C 44 41.773666 41.773666 44 39 44 L 11 44 C 8.2263339 44 6 41.773666 6 39 L 6 11 C 6 8.2263339 8.2263339 6 11 6 z M 13.085938 13 L 22.308594 26.103516 L 13 37 L 15.5 37 L 23.4375 27.707031 L 29.976562 37 L 37.914062 37 L 27.789062 22.613281 L 36 13 L 33.5 13 L 26.660156 21.009766 L 21.023438 13 L 13.085938 13 z M 16.914062 15 L 19.978516 15 L 34.085938 35 L 31.021484 35 L 16.914062 15 z"></path>
  </symbol>
  <symbol xmlns="http://www.w3.org/2000/svg" viewBox="0 0 256 192" id="playwright">
    <path fill="currentColor" d="M84.38 108.352c-9.556 2.712-15.826 7.467-19.956 12.218c3.956-3.461 9.255-6.639 16.402-8.665c7.311-2.072 13.548-2.057 18.702-1.062v-4.03c-4.397-.402-9.437-.082-15.148 1.539M63.987 74.475l-35.49 9.35s.646.914 1.844 2.133l30.092-7.93s-.427 5.495-4.13 10.41c7.005-5.299 7.684-13.963 7.684-13.963m29.709 83.41c-49.946 13.452-76.37-44.43-84.37-74.472c-3.696-13.868-5.31-24.37-5.74-31.148a11.482 11.482 0 0 1 .025-1.84C1.021 50.58-.22 51.927.032 55.82c.43 6.773 2.044 17.275 5.74 31.147c7.997 30.038 34.424 87.92 84.37 74.468c10.871-2.929 19.038-8.263 25.17-15.073c-5.652 5.104-12.724 9.123-21.616 11.523M103.08 39.05v3.555h19.59c-.401-1.259-.806-2.393-1.208-3.555z"></path>
    <path fill="currentColor" d="M127.05 68.325c8.81 2.503 13.47 8.68 15.933 14.146l9.824 2.79s-1.34-19.132-18.645-24.047c-16.189-4.6-26.151 8.995-27.363 10.754c4.71-3.355 11.586-6.102 20.251-3.643m78.197 14.234c-16.204-4.62-26.162 9.003-27.356 10.737c4.713-3.351 11.586-6.099 20.247-3.629c8.797 2.506 13.452 8.676 15.923 14.146l9.837 2.8s-1.361-19.135-18.651-24.054m-9.76 50.443l-81.718-22.845s.885 4.485 4.279 10.293l68.803 19.234c5.664-3.277 8.636-6.682 8.636-6.682m-56.655 49.174C74.127 164.828 81.949 82.386 92.419 43.32c4.311-16.1 8.743-28.066 12.419-36.088c-2.193-.451-4.01.704-5.804 4.354C95.13 19.5 90.14 32.387 85.312 50.427c-10.467 39.066-18.29 121.506 46.412 138.854c30.497 8.17 54.256-4.247 71.966-23.749c-16.81 15.226-38.274 23.763-64.858 16.644"></path>
    <path fill="currentColor" d="M103.081 138.565v-16.637l-46.223 13.108s3.415-19.846 27.522-26.684c7.311-2.072 13.549-2.058 18.701-1.063V39.05h23.145c-2.52-7.787-4.958-13.782-7.006-17.948c-3.387-6.895-6.859-2.324-14.741 4.269c-5.552 4.638-19.583 14.533-40.698 20.222c-21.114 5.694-38.185 4.184-45.307 2.95c-10.097-1.742-15.378-3.96-14.884 3.721c.43 6.774 2.043 17.277 5.74 31.148c7.996 30.039 34.424 87.92 84.37 74.468c13.046-3.515 22.254-10.464 28.637-19.32h-19.256zm-74.588-54.74l35.494-9.35s-1.034 13.654-14.34 17.162c-13.31 3.504-21.154-7.812-21.154-7.812"></path>
    <path fill="currentColor" d="M236.664 39.84c-9.226 1.617-31.361 3.632-58.716-3.7c-27.363-7.328-45.517-20.144-52.71-26.168c-10.197-8.54-14.682-14.476-19.096-5.498c-3.902 7.918-8.893 20.805-13.723 38.846c-10.466 39.066-18.289 121.505 46.413 138.853c64.687 17.333 99.126-57.978 109.593-97.047c4.83-18.037 6.948-31.695 7.53-40.502c.665-9.976-6.187-7.08-19.29-4.784M106.668 72.161s10.196-15.859 27.49-10.943c17.305 4.915 18.645 24.046 18.645 24.046zm42.215 71.163c-30.419-8.91-35.11-33.167-35.11-33.167l81.714 22.846c0-.004-16.494 19.12-46.604 10.32m28.89-49.85s10.183-15.847 27.474-10.918c17.29 4.923 18.651 24.054 18.651 24.054z"></path>
    <path fill="currentColor" d="m86.928 126.51l-30.07 8.522s3.266-18.609 25.418-25.983L65.25 45.147l-1.471.447c-21.115 5.694-38.185 4.184-45.307 2.95c-10.097-1.741-15.379-3.96-14.885 3.722c.43 6.774 2.044 17.276 5.74 31.147c7.997 30.039 34.425 87.92 84.37 74.468l1.471-.462zM28.493 83.825l35.494-9.351s-1.034 13.654-14.34 17.162c-13.31 3.504-21.154-7.811-21.154-7.811"></path>
    <path fill="currentColor" d="m150.255 143.658l-1.376-.335c-30.419-8.91-35.11-33.166-35.11-33.166l42.137 11.778l22.308-85.724l-.27-.07c-27.362-7.329-45.516-20.145-52.71-26.17c-10.196-8.54-14.682-14.475-19.096-5.497c-3.898 7.918-8.889 20.805-13.719 38.846c-10.466 39.066-18.289 121.505 46.413 138.852l1.326.3zM106.668 72.16s10.196-15.859 27.49-10.943c17.305 4.915 18.645 24.046 18.645 24.046z"></path>
    <path fill="currentColor" d="m88.46 126.072l-8.064 2.289c1.906 10.74 5.264 21.047 10.534 30.152c.918-.202 1.828-.376 2.762-.632c2.449-.66 4.72-1.479 6.906-2.371c-5.89-8.74-9.785-18.804-12.137-29.438m-3.148-75.644c-4.144 15.467-7.852 37.73-6.831 60.06c1.826-.793 3.756-1.532 5.9-2.14l1.492-.334c-1.82-23.852 2.114-48.157 6.546-64.694a323.075 323.075 0 0 1 3.373-11.704a104.686 104.686 0 0 1-5.974 3.547a306.457 306.457 0 0 0-4.506 15.265"></path>
  </symbol>
</svg>
