<svg width="0" height="0" class="hidden">
  <symbol xmlns="http://www.w3.org/2000/svg" xmlns:xlink="http://www.w3.org/1999/xlink" viewBox="0,0,256,256" id="github">
    <g fill="currentColor" fill-rule="nonzero" stroke="none" stroke-width="1" stroke-linecap="butt" stroke-linejoin="miter" stroke-miterlimit="10" stroke-dasharray="" stroke-dashoffset="0" font-family="none" font-weight="none" font-size="none" text-anchor="none">
      <g transform="scale(5.12,5.12)">
        <path d="M17.791,46.836c0.711,-0.306 1.209,-1.013 1.209,-1.836v-5.4c0,-0.197 0.016,-0.402 0.041,-0.61c-0.014,0.004 -0.027,0.007 -0.041,0.01c0,0 -3,0 -3.6,0c-1.5,0 -2.8,-0.6 -3.4,-1.8c-0.7,-1.3 -1,-3.5 -2.8,-4.7c-0.3,-0.2 -0.1,-0.5 0.5,-0.5c0.6,0.1 1.9,0.9 2.7,2c0.9,1.1 1.8,2 3.4,2c2.487,0 3.82,-0.125 4.622,-0.555c0.934,-1.389 2.227,-2.445 3.578,-2.445v-0.025c-5.668,-0.182 -9.289,-2.066 -10.975,-4.975c-3.665,0.042 -6.856,0.405 -8.677,0.707c-0.058,-0.327 -0.108,-0.656 -0.151,-0.987c1.797,-0.296 4.843,-0.647 8.345,-0.714c-0.112,-0.276 -0.209,-0.559 -0.291,-0.849c-3.511,-0.178 -6.541,-0.039 -8.187,0.097c-0.02,-0.332 -0.047,-0.663 -0.051,-0.999c1.649,-0.135 4.597,-0.27 8.018,-0.111c-0.079,-0.5 -0.13,-1.011 -0.13,-1.543c0,-1.7 0.6,-3.5 1.7,-5c-0.5,-1.7 -1.2,-5.3 0.2,-6.6c2.7,0 4.6,1.3 5.5,2.1c1.699,-0.701 3.599,-1.101 5.699,-1.101c2.1,0 4,0.4 5.6,1.1c0.9,-0.8 2.8,-2.1 5.5,-2.1c1.5,1.4 0.7,5 0.2,6.6c1.1,1.5 1.7,3.2 1.6,5c0,0.484 -0.045,0.951 -0.11,1.409c3.499,-0.172 6.527,-0.034 8.204,0.102c-0.002,0.337 -0.033,0.666 -0.051,0.999c-1.671,-0.138 -4.775,-0.28 -8.359,-0.089c-0.089,0.336 -0.197,0.663 -0.325,0.98c3.546,0.046 6.665,0.389 8.548,0.689c-0.043,0.332 -0.093,0.661 -0.151,0.987c-1.912,-0.306 -5.171,-0.664 -8.879,-0.682c-1.665,2.878 -5.22,4.755 -10.777,4.974v0.031c2.6,0 5,3.9 5,6.6v5.4c0,0.823 0.498,1.53 1.209,1.836c9.161,-3.032 15.791,-11.672 15.791,-21.836c0,-12.682 -10.317,-23 -23,-23c-12.683,0 -23,10.318 -23,23c0,10.164 6.63,18.804 15.791,21.836z"></path>
      </g>
    </g>
  </symbol>
<symbol xmlns="http://www.w3.org/2000/svg" id="ua" viewBox="0 0 640 480">
  <g fill-rule="evenodd">
    <path fill="gold" d="M0 0h640v480H0z"/>
    <path fill="#0057b8" d="M0 0h640v240H0z"/>
  </g>
</symbol>
<symbol xmlns="http://www.w3.org/2000/svg" id="pl" viewBox="0 0 640 480">
  <g fill-rule="evenodd">
 <path fill="#fff" d="M640 480H0V0h640z"/>
    <path fill="#dc143c" d="M640 480H0V240h640z"/>
  </g>
</symbol>
<symbol xmlns="http://www.w3.org/2000/svg" id="en" viewBox="0 0 640 480">
 <path fill="#012169" d="M0 0h640v480H0z"/>
  <path fill="#FFF" d="m75 0 244 181L562 0h78v62L400 241l240 178v61h-80L320 301 81 480H0v-60l239-178L0 64V0z"/>
  <path fill="#C8102E" d="m424 281 216 159v40L369 281zm-184 20 6 35L54 480H0zM640 0v3L391 191l2-44L590 0zM0 0l239 176h-60L0 42z"/>
  <path fill="#FFF" d="M241 0v480h160V0zM0 160v160h640V160z"/>
  <path fill="#C8102E" d="M0 193v96h640v-96zM273 0v480h96V0z"/>
</symbol>
  <symbol id="hamburger" version="1.1" xml:space="preserve" xmlns="http://www.w3.org/2000/svg" xmlns:xlink="http://www.w3.org/1999/xlink" viewBox="0 0 32 32">
    <path d="M4,10h24c1.104,0,2-0.896,2-2s-0.896-2-2-2H4C2.896,6,2,6.896,2,8S2.896,10,4,10z M28,14H4c-1.104,0-2,0.896-2,2  s0.896,2,2,2h24c1.104,0,2-0.896,2-2S29.104,14,28,14z M28,22H4c-1.104,0-2,0.896-2,2s0.896,2,2,2h24c1.104,0,2-0.896,2-2  S29.104,22,28,22z"></path>
  </symbol>
  <symbol xmlns="http://www.w3.org/2000/svg" xmlns:xlink="http://www.w3.org/1999/xlink" viewBox="0,0,256,256" id="linkedin">
    <g fill="currentColor" fill-rule="nonzero" stroke="none" stroke-width="1" stroke-linecap="butt" stroke-linejoin="miter" stroke-miterlimit="10" stroke-dasharray="" stroke-dashoffset="0" font-family="none" font-weight="none" font-size="none" text-anchor="none">
      <g transform="scale(5.12,5.12)">
        <path d="M41,4h-32c-2.76,0 -5,2.24 -5,5v32c0,2.76 2.24,5 5,5h32c2.76,0 5,-2.24 5,-5v-32c0,-2.76 -2.24,-5 -5,-5zM17,20v19h-6v-19zM11,14.47c0,-1.4 1.2,-2.47 3,-2.47c1.8,0 2.93,1.07 3,2.47c0,1.4 -1.12,2.53 -3,2.53c-1.8,0 -3,-1.13 -3,-2.53zM39,39h-6c0,0 0,-9.26 0,-10c0,-2 -1,-4 -3.5,-4.04h-0.08c-2.42,0 -3.42,2.06 -3.42,4.04c0,0.91 0,10 0,10h-6v-19h6v2.56c0,0 1.93,-2.56 5.81,-2.56c3.97,0 7.19,2.73 7.19,8.26z"></path>
      </g>
    </g>
  </symbol>
  <symbol role="img" xmlns="http://www.w3.org/2000/svg" viewBox="0 0 24 24" id="nextdotjs">
    <title>Next.js</title>
    <path d="M11.5725 0c-.1763 0-.3098.0013-.3584.0067-.0516.0053-.2159.021-.3636.0328-3.4088.3073-6.6017 2.1463-8.624 4.9728C1.1004 6.584.3802 8.3666.1082 10.255c-.0962.659-.108.8537-.108 1.7474s.012 1.0884.108 1.7476c.652 4.506 3.8591 8.2919 8.2087 9.6945.7789.2511 1.6.4223 2.5337.5255.3636.04 1.9354.04 2.299 0 1.6117-.1783 2.9772-.577 4.3237-1.2643.2065-.1056.2464-.1337.2183-.1573-.0188-.0139-.8987-1.1938-1.9543-2.62l-1.919-2.592-2.4047-3.5583c-1.3231-1.9564-2.4117-3.556-2.4211-3.556-.0094-.0026-.0187 1.5787-.0235 3.509-.0067 3.3802-.0093 3.5162-.0516 3.596-.061.115-.108.1618-.2064.2134-.075.0374-.1408.0445-.495.0445h-.406l-.1078-.068a.4383.4383 0 01-.1572-.1712l-.0493-.1056.0053-4.703.0067-4.7054.0726-.0915c.0376-.0493.1174-.1125.1736-.143.0962-.047.1338-.0517.5396-.0517.4787 0 .5584.0187.6827.1547.0353.0377 1.3373 1.9987 2.895 4.3608a10760.433 10760.433 0 004.7344 7.1706l1.9002 2.8782.096-.0633c.8518-.5536 1.7525-1.3418 2.4657-2.1627 1.5179-1.7429 2.4963-3.868 2.8247-6.134.0961-.6591.1078-.854.1078-1.7475 0-.8937-.012-1.0884-.1078-1.7476-.6522-4.506-3.8592-8.2919-8.2087-9.6945-.7672-.2487-1.5836-.42-2.4985-.5232-.169-.0176-1.0835-.0366-1.6123-.037zm4.0685 7.217c.3473 0 .4082.0053.4857.047.1127.0562.204.1642.237.2767.0186.061.0234 1.3653.0186 4.3044l-.0067 4.2175-.7436-1.14-.7461-1.14v-3.066c0-1.982.0093-3.0963.0234-3.1502.0375-.1313.1196-.2346.2323-.2955.0961-.0494.1313-.054.4997-.054z"></path>
  </symbol>
  <symbol role="img" xmlns="http://www.w3.org/2000/svg" viewBox="0 0 24 24" id="css">
    <title>CSS3</title>
    <path d="M1.5 0h21l-1.91 21.563L11.977 24l-8.565-2.438L1.5 0zm17.09 4.413L5.41 4.41l.213 2.622 10.125.002-.255 2.716h-6.64l.24 2.573h6.182l-.366 3.523-2.91.804-2.956-.81-.188-2.11h-2.61l.29 3.855L12 19.288l5.373-1.53L18.59 4.414z"></path>
  </symbol>
  <symbol role="img" xmlns="http://www.w3.org/2000/svg" viewBox="0 0 24 24" id="html">
    <title>HTML5</title>
    <path d="M1.5 0h21l-1.91 21.563L11.977 24l-8.564-2.438L1.5 0zm7.031 9.75l-.232-2.718 10.059.003.23-2.622L5.412 4.41l.698 8.01h9.126l-.326 3.426-2.91.804-2.955-.81-.188-2.11H6.248l.33 4.171L12 19.351l5.379-1.443.744-8.157H8.531z"></path>
  </symbol>
  <symbol role="img" xmlns="http://www.w3.org/2000/svg" viewBox="0 0 24 24" id="git">
    <title>Git</title>
    <path d="M23.546 10.93L13.067.452c-.604-.603-1.582-.603-2.188 0L8.708 2.627l2.76 2.76c.645-.215 1.379-.07 1.889.441.516.515.658 1.258.438 1.9l2.658 2.66c.645-.223 1.387-.078 1.9.435.721.72.721 1.884 0 2.604-.719.719-1.881.719-2.6 0-.539-.541-.674-1.337-.404-1.996L12.86 8.955v6.525c.176.086.342.203.488.348.713.721.713 1.883 0 2.6-.719.721-1.889.721-2.609 0-.719-.719-.719-1.879 0-2.598.182-.18.387-.316.605-.406V8.835c-.217-.091-.424-.222-.6-.401-.545-.545-.676-1.342-.396-2.009L7.636 3.7.45 10.881c-.6.605-.6 1.584 0 2.189l10.48 10.477c.604.604 1.582.604 2.186 0l10.43-10.43c.605-.603.605-1.582 0-2.187"></path>
  </symbol>
  <symbol role="img" xmlns="http://www.w3.org/2000/svg" viewBox="0 0 24 24" id="tailwindcss">
    <title>Tailwind CSS</title>
    <path d="M12.001,4.8c-3.2,0-5.2,1.6-6,4.8c1.2-1.6,2.6-2.2,4.2-1.8c0.913,0.228,1.565,0.89,2.288,1.624 C13.666,10.618,15.027,12,18.001,12c3.2,0,5.2-1.6,6-4.8c-1.2,1.6-2.6,2.2-4.2,1.8c-0.913-0.228-1.565-0.89-2.288-1.624 C16.337,6.182,14.976,4.8,12.001,4.8z M6.001,12c-3.2,0-5.2,1.6-6,4.8c1.2-1.6,2.6-2.2,4.2-1.8c0.913,0.228,1.565,0.89,2.288,1.624 c1.177,1.194,2.538,2.576,5.512,2.576c3.2,0,5.2-1.6,6-4.8c-1.2,1.6-2.6,2.2-4.2,1.8c-0.913-0.228-1.565-0.89-2.288-1.624 C10.337,13.382,8.976,12,6.001,12z"></path>
  </symbol>
  <symbol role="img" xmlns="http://www.w3.org/2000/svg" viewBox="0 0 24 24" id="react">
    <title>React</title>
    <path d="M14.23 12.004a2.236 2.236 0 0 1-2.235 2.236 2.236 2.236 0 0 1-2.236-2.236 2.236 2.236 0 0 1 2.235-2.236 2.236 2.236 0 0 1 2.236 2.236zm2.648-10.69c-1.346 0-3.107.96-4.888 2.622-1.78-1.653-3.542-2.602-4.887-2.602-.41 0-.783.093-1.106.278-1.375.793-1.683 3.264-.973 6.365C1.98 8.917 0 10.42 0 12.004c0 1.59 1.99 3.097 5.043 4.03-.704 3.113-.39 5.588.988 6.38.32.187.69.275 1.102.275 1.345 0 3.107-.96 4.888-2.624 1.78 1.654 3.542 2.603 4.887 2.603.41 0 .783-.09 1.106-.275 1.374-.792 1.683-3.263.973-6.365C22.02 15.096 24 13.59 24 12.004c0-1.59-1.99-3.097-5.043-4.032.704-3.11.39-5.587-.988-6.38-.318-.184-.688-.277-1.092-.278zm-.005 1.09v.006c.225 0 .406.044.558.127.666.382.955 1.835.73 3.704-.054.46-.142.945-.25 1.44-.96-.236-2.006-.417-3.107-.534-.66-.905-1.345-1.727-2.035-2.447 1.592-1.48 3.087-2.292 4.105-2.295zm-9.77.02c1.012 0 2.514.808 4.11 2.28-.686.72-1.37 1.537-2.02 2.442-1.107.117-2.154.298-3.113.538-.112-.49-.195-.964-.254-1.42-.23-1.868.054-3.32.714-3.707.19-.09.4-.127.563-.132zm4.882 3.05c.455.468.91.992 1.36 1.564-.44-.02-.89-.034-1.345-.034-.46 0-.915.01-1.36.034.44-.572.895-1.096 1.345-1.565zM12 8.1c.74 0 1.477.034 2.202.093.406.582.802 1.203 1.183 1.86.372.64.71 1.29 1.018 1.946-.308.655-.646 1.31-1.013 1.95-.38.66-.773 1.288-1.18 1.87-.728.063-1.466.098-2.21.098-.74 0-1.477-.035-2.202-.093-.406-.582-.802-1.204-1.183-1.86-.372-.64-.71-1.29-1.018-1.946.303-.657.646-1.313 1.013-1.954.38-.66.773-1.286 1.18-1.868.728-.064 1.466-.098 2.21-.098zm-3.635.254c-.24.377-.48.763-.704 1.16-.225.39-.435.782-.635 1.174-.265-.656-.49-1.31-.676-1.947.64-.15 1.315-.283 2.015-.386zm7.26 0c.695.103 1.365.23 2.006.387-.18.632-.405 1.282-.66 1.933-.2-.39-.41-.783-.64-1.174-.225-.392-.465-.774-.705-1.146zm3.063.675c.484.15.944.317 1.375.498 1.732.74 2.852 1.708 2.852 2.476-.005.768-1.125 1.74-2.857 2.475-.42.18-.88.342-1.355.493-.28-.958-.646-1.956-1.1-2.98.45-1.017.81-2.01 1.085-2.964zm-13.395.004c.278.96.645 1.957 1.1 2.98-.45 1.017-.812 2.01-1.086 2.964-.484-.15-.944-.318-1.37-.5-1.732-.737-2.852-1.706-2.852-2.474 0-.768 1.12-1.742 2.852-2.476.42-.18.88-.342 1.356-.494zm11.678 4.28c.265.657.49 1.312.676 1.948-.64.157-1.316.29-2.016.39.24-.375.48-.762.705-1.158.225-.39.435-.788.636-1.18zm-9.945.02c.2.392.41.783.64 1.175.23.39.465.772.705 1.143-.695-.102-1.365-.23-2.006-.386.18-.63.406-1.282.66-1.933zM17.92 16.32c.112.493.2.968.254 1.423.23 1.868-.054 3.32-.714 3.708-.147.09-.338.128-.563.128-1.012 0-2.514-.807-4.11-2.28.686-.72 1.37-1.536 2.02-2.44 1.107-.118 2.154-.3 3.113-.54zm-11.83.01c.96.234 2.006.415 3.107.532.66.905 1.345 1.727 2.035 2.446-1.595 1.483-3.092 2.295-4.11 2.295-.22-.005-.406-.05-.553-.132-.666-.38-.955-1.834-.73-3.703.054-.46.142-.944.25-1.438zm4.56.64c.44.02.89.034 1.345.034.46 0 .915-.01 1.36-.034-.44.572-.895 1.095-1.345 1.565-.455-.47-.91-.993-1.36-1.565z"></path>
  </symbol>
<symbol role="img" xmlns="http://www.w3.org/2000/svg" viewBox="0 0 24 24" id="figma">
    <title>Figma</title>
    <path d="M15.852 8.981h-4.588V0h4.588c2.476 0 4.49 2.014 4.49 4.49s-2.014 4.491-4.49 4.491zM12.735 7.51h3.117c1.665 0 3.019-1.355 3.019-3.019s-1.355-3.019-3.019-3.019h-3.117V7.51zm0 1.471H8.148c-2.476 0-4.49-2.014-4.49-4.49S5.672 0 8.148 0h4.588v8.981zm-4.587-7.51c-1.665 0-3.019 1.355-3.019 3.019s1.354 3.02 3.019 3.02h3.117V1.471H8.148zm4.587 15.019H8.148c-2.476 0-4.49-2.014-4.49-4.49s2.014-4.49 4.49-4.49h4.588v8.98zM8.148 8.981c-1.665 0-3.019 1.355-3.019 3.019s1.355 3.019 3.019 3.019h3.117V8.981H8.148zM8.172 24c-2.489 0-4.515-2.014-4.515-4.49s2.014-4.49 4.49-4.49h4.588v4.441c0 2.503-2.047 4.539-4.563 4.539zm-.024-7.51a3.023 3.023 0 0 0-3.019 3.019c0 1.665 1.365 3.019 3.044 3.019 1.705 0 3.093-1.376 3.093-3.068v-2.97H8.148zm7.704 0h-.098c-2.476 0-4.49-2.014-4.49-4.49s2.014-4.49 4.49-4.49h.098c2.476 0 4.49 2.014 4.49 4.49s-2.014 4.49-4.49 4.49zm-.097-7.509c-1.665 0-3.019 1.355-3.019 3.019s1.355 3.019 3.019 3.019h.098c1.665 0 3.019-1.355 3.019-3.019s-1.355-3.019-3.019-3.019h-.098z"></path>
  </symbol>
<symbol role="img" xmlns="http://www.w3.org/2000/svg" viewBox="0 0 24 24" id="javascript">
    <title>JavaScript</title>
    <path d="M0 0h24v24H0V0zm22.034 18.276c-.175-1.095-.888-2.015-3.003-2.873-.736-.345-1.554-.585-1.797-1.14-.091-.33-.105-.51-.046-.705.15-.646.915-.84 1.515-.66.39.12.75.42.976.9 1.034-.676 1.034-.676 1.755-1.125-.27-.42-.404-.601-.586-.78-.63-.705-1.469-1.065-2.834-1.034l-.705.089c-.676.165-1.32.525-1.71 1.005-1.14 1.291-.811 3.541.569 4.471 1.365 1.02 3.361 1.244 3.616 2.205.24 1.17-.87 1.545-1.966 1.41-.811-.18-1.26-.586-1.755-1.336l-1.83 1.051c.21.48.45.689.81 1.109 1.74 1.756 6.09 1.666 6.871-1.004.029-.09.24-.705.074-1.65l.046.067zm-8.983-7.245h-2.248c0 1.938-.009 3.864-.009 5.805 0 1.232.063 2.363-.138 2.711-.33.689-1.18.601-1.566.48-.396-.196-.597-.466-.83-.855-.063-.105-.11-.196-.127-.196l-1.825 1.125c.305.63.75 1.172 1.324 1.517.855.51 2.004.675 3.207.405.783-.226 1.458-.691 1.811-1.411.51-.93.402-2.07.397-3.346.012-2.054 0-4.109 0-6.179l.004-.056z"></path>
  </symbol>
  <symbol role="img" xmlns="http://www.w3.org/2000/svg" viewBox="0 0 24 24" id="typescript">
    <title>TypeScript</title>
    <path d="M1.125 0C.502 0 0 .502 0 1.125v21.75C0 23.498.502 24 1.125 24h21.75c.623 0 1.125-.502 1.125-1.125V1.125C24 .502 23.498 0 22.875 0zm17.363 9.75c.612 0 1.154.037 1.627.111a6.38 6.38 0 0 1 1.306.34v2.458a3.95 3.95 0 0 0-.643-.361 5.093 5.093 0 0 0-.717-.26 5.453 5.453 0 0 0-1.426-.2c-.3 0-.573.028-.819.086a2.1 2.1 0 0 0-.623.242c-.17.104-.3.229-.393.374a.888.888 0 0 0-.14.49c0 .196.053.373.156.529.104.156.252.304.443.444s.423.276.696.41c.273.135.582.274.926.416.47.197.892.407 1.266.628.374.222.695.473.963.753.268.279.472.598.614.957.142.359.214.776.214 1.253 0 .657-.125 1.21-.373 1.656a3.033 3.033 0 0 1-1.012 1.085 4.38 4.38 0 0 1-1.487.596c-.566.12-1.163.18-1.79.18a9.916 9.916 0 0 1-1.84-.164 5.544 5.544 0 0 1-1.512-.493v-2.63a5.033 5.033 0 0 0 3.237 1.2c.333 0 .624-.03.872-.09.249-.06.456-.144.623-.25.166-.108.29-.234.373-.38a1.023 1.023 0 0 0-.074-1.089 2.12 2.12 0 0 0-.537-.5 5.597 5.597 0 0 0-.807-.444 27.72 27.72 0 0 0-1.007-.436c-.918-.383-1.602-.852-2.053-1.405-.45-.553-.676-1.222-.676-2.005 0-.614.123-1.141.369-1.582.246-.441.58-.804 1.004-1.089a4.494 4.494 0 0 1 1.47-.629 7.536 7.536 0 0 1 1.77-.201zm-15.113.188h9.563v2.166H9.506v9.646H6.789v-9.646H3.375z"></path>
  </symbol>
  <symbol role="img" xmlns="http://www.w3.org/2000/svg" viewBox="0 0 24 24" id="vim">
    <title>Vim</title>
    <path d="M24 11.986h-.027l-4.318-4.318 4.303-4.414V1.461l-.649-.648h-8.198l-.66.605v1.045L12.015.027V0L12 .014 11.986 0v.027l-1.29 1.291-.538-.539H2.035l-.638.692v1.885l.616.616h.72v5.31L.027 11.987H0L.014 12 0 12.014h.027l2.706 2.706v6.467l.907.523h2.322l1.857-1.904 4.166 4.166V24l.015-.014.014.014v-.028l2.51-2.509h.485c.111 0 .211-.07.25-.179l.146-.426c.028-.084.012-.172-.037-.239l1.462-1.462-.612 1.962c-.043.141.036.289.177.332.025.008.052.012.078.012h1.824c.106-.001.201-.064.243-.163l.165-.394c.025-.065.024-.138-.004-.203-.027-.065-.08-.116-.146-.142-.029-.012-.062-.019-.097-.02h-.075l.84-2.644h1.232l-1.016 3.221c-.043.141.036.289.176.332.025.008.052.012.079.012h2.002c.11 0 .207-.066.248-.17l.164-.428c.051-.138-.021-.29-.158-.341-.029-.011-.06-.017-.091-.017h-.145l1.131-3.673c.027-.082.012-.173-.039-.24l-.375-.504-.003-.005c-.051-.064-.127-.102-.209-.102h-1.436c-.071 0-.141.03-.19.081l-.4.439h-.624l-.042-.046 4.445-4.445H24L23.986 12l.014-.014zM9.838 21.139l1.579-4.509h-.501l.297-.304h1.659l-1.563 4.555h.623l-.079.258H9.838zm3.695-7.516l.15.151-.269.922-.225.226h-.969l-.181-.181.311-.871.288-.247h.895zM5.59 20.829H3.877l-.262-.15V3.091H2.379l-.1-.1V1.815l.143-.154h7.371l.213.214v1.108l-.142.173H8.785v8.688l8.807-8.688h-2.086l-.175-.188V1.805l.121-.111h7.49l.132.133v1.07L12.979 13.25h-.373c-.015-.001-.028 0-.042.001l-.02.003c-.045.01-.086.03-.119.06l-.343.295-.004.003c-.033.031-.059.069-.073.111l-.296.83-6.119 6.276zm14.768-3.952l.474-.519h1.334l.309.415-1.265 4.107h.493l-.08.209H19.84l1.124-3.564h-2.015l-1.077 3.391h.424l-.073.174h-1.605l1.107-3.548h-2.096l-1.062 3.339h.436l-.072.209H13.27l1.514-4.46H14.198l.091-.271h1.65l.519.537h.906l.491-.554h1.061l.489.535h.953z"></path>
  </symbol>
  <symbol xmlns="http://www.w3.org/2000/svg" viewBox="0 0 48 48" id="twitter">
    <path fill="currentColor" d="M 11 4 C 7.1456661 4 4 7.1456661 4 11 L 4 39 C 4 42.854334 7.1456661 46 11 46 L 39 46 C 42.854334 46 46 42.854334 46 39 L 46 11 C 46 7.1456661 42.854334 4 39 4 L 11 4 z M 11 6 L 39 6 C 41.773666 6 44 8.2263339 44 11 L 44 39 C 44 41.773666 41.773666 44 39 44 L 11 44 C 8.2263339 44 6 41.773666 6 39 L 6 11 C 6 8.2263339 8.2263339 6 11 6 z M 13.085938 13 L 22.308594 26.103516 L 13 37 L 15.5 37 L 23.4375 27.707031 L 29.976562 37 L 37.914062 37 L 27.789062 22.613281 L 36 13 L 33.5 13 L 26.660156 21.009766 L 21.023438 13 L 13.085938 13 z M 16.914062 15 L 19.978516 15 L 34.085938 35 L 31.021484 35 L 16.914062 15 z"></path>
  </symbol>
  <symbol xmlns="http://www.w3.org/2000/svg" viewBox="0 0 256 192" id="playwright">
    <path fill="currentColor" d="M84.38 108.352c-9.556 2.712-15.826 7.467-19.956 12.218c3.956-3.461 9.255-6.639 16.402-8.665c7.311-2.072 13.548-2.057 18.702-1.062v-4.03c-4.397-.402-9.437-.082-15.148 1.539M63.987 74.475l-35.49 9.35s.646.914 1.844 2.133l30.092-7.93s-.427 5.495-4.13 10.41c7.005-5.299 7.684-13.963 7.684-13.963m29.709 83.41c-49.946 13.452-76.37-44.43-84.37-74.472c-3.696-13.868-5.31-24.37-5.74-31.148a11.482 11.482 0 0 1 .025-1.84C1.021 50.58-.22 51.927.032 55.82c.43 6.773 2.044 17.275 5.74 31.147c7.997 30.038 34.424 87.92 84.37 74.468c10.871-2.929 19.038-8.263 25.17-15.073c-5.652 5.104-12.724 9.123-21.616 11.523M103.08 39.05v3.555h19.59c-.401-1.259-.806-2.393-1.208-3.555z"></path>
    <path fill="currentColor" d="M127.05 68.325c8.81 2.503 13.47 8.68 15.933 14.146l9.824 2.79s-1.34-19.132-18.645-24.047c-16.189-4.6-26.151 8.995-27.363 10.754c4.71-3.355 11.586-6.102 20.251-3.643m78.197 14.234c-16.204-4.62-26.162 9.003-27.356 10.737c4.713-3.351 11.586-6.099 20.247-3.629c8.797 2.506 13.452 8.676 15.923 14.146l9.837 2.8s-1.361-19.135-18.651-24.054m-9.76 50.443l-81.718-22.845s.885 4.485 4.279 10.293l68.803 19.234c5.664-3.277 8.636-6.682 8.636-6.682m-56.655 49.174C74.127 164.828 81.949 82.386 92.419 43.32c4.311-16.1 8.743-28.066 12.419-36.088c-2.193-.451-4.01.704-5.804 4.354C95.13 19.5 90.14 32.387 85.312 50.427c-10.467 39.066-18.29 121.506 46.412 138.854c30.497 8.17 54.256-4.247 71.966-23.749c-16.81 15.226-38.274 23.763-64.858 16.644"></path>
    <path fill="currentColor" d="M103.081 138.565v-16.637l-46.223 13.108s3.415-19.846 27.522-26.684c7.311-2.072 13.549-2.058 18.701-1.063V39.05h23.145c-2.52-7.787-4.958-13.782-7.006-17.948c-3.387-6.895-6.859-2.324-14.741 4.269c-5.552 4.638-19.583 14.533-40.698 20.222c-21.114 5.694-38.185 4.184-45.307 2.95c-10.097-1.742-15.378-3.96-14.884 3.721c.43 6.774 2.043 17.277 5.74 31.148c7.996 30.039 34.424 87.92 84.37 74.468c13.046-3.515 22.254-10.464 28.637-19.32h-19.256zm-74.588-54.74l35.494-9.35s-1.034 13.654-14.34 17.162c-13.31 3.504-21.154-7.812-21.154-7.812"></path>
    <path fill="currentColor" d="M236.664 39.84c-9.226 1.617-31.361 3.632-58.716-3.7c-27.363-7.328-45.517-20.144-52.71-26.168c-10.197-8.54-14.682-14.476-19.096-5.498c-3.902 7.918-8.893 20.805-13.723 38.846c-10.466 39.066-18.289 121.505 46.413 138.853c64.687 17.333 99.126-57.978 109.593-97.047c4.83-18.037 6.948-31.695 7.53-40.502c.665-9.976-6.187-7.08-19.29-4.784M106.668 72.161s10.196-15.859 27.49-10.943c17.305 4.915 18.645 24.046 18.645 24.046zm42.215 71.163c-30.419-8.91-35.11-33.167-35.11-33.167l81.714 22.846c0-.004-16.494 19.12-46.604 10.32m28.89-49.85s10.183-15.847 27.474-10.918c17.29 4.923 18.651 24.054 18.651 24.054z"></path>
    <path fill="currentColor" d="m86.928 126.51l-30.07 8.522s3.266-18.609 25.418-25.983L65.25 45.147l-1.471.447c-21.115 5.694-38.185 4.184-45.307 2.95c-10.097-1.741-15.379-3.96-14.885 3.722c.43 6.774 2.044 17.276 5.74 31.147c7.997 30.039 34.425 87.92 84.37 74.468l1.471-.462zM28.493 83.825l35.494-9.351s-1.034 13.654-14.34 17.162c-13.31 3.504-21.154-7.811-21.154-7.811"></path>
    <path fill="currentColor" d="m150.255 143.658l-1.376-.335c-30.419-8.91-35.11-33.166-35.11-33.166l42.137 11.778l22.308-85.724l-.27-.07c-27.362-7.329-45.516-20.145-52.71-26.17c-10.196-8.54-14.682-14.475-19.096-5.497c-3.898 7.918-8.889 20.805-13.719 38.846c-10.466 39.066-18.289 121.505 46.413 138.852l1.326.3zM106.668 72.16s10.196-15.859 27.49-10.943c17.305 4.915 18.645 24.046 18.645 24.046z"></path>
    <path fill="currentColor" d="m88.46 126.072l-8.064 2.289c1.906 10.74 5.264 21.047 10.534 30.152c.918-.202 1.828-.376 2.762-.632c2.449-.66 4.72-1.479 6.906-2.371c-5.89-8.74-9.785-18.804-12.137-29.438m-3.148-75.644c-4.144 15.467-7.852 37.73-6.831 60.06c1.826-.793 3.756-1.532 5.9-2.14l1.492-.334c-1.82-23.852 2.114-48.157 6.546-64.694a323.075 323.075 0 0 1 3.373-11.704a104.686 104.686 0 0 1-5.974 3.547a306.457 306.457 0 0 0-4.506 15.265"></path>
  </symbol>
  <symbol xmlns="http://www.w3.org/2000/svg" baseProfile="basic" viewBox="0 0 48 48" id="nodejs">
    <path fill="currentColor" d="M24.007,45.419c-0.574,0-1.143-0.15-1.646-0.44l-5.24-3.103c-0.783-0.438-0.401-0.593-0.143-0.682	c1.044-0.365,1.255-0.448,2.369-1.081c0.117-0.067,0.27-0.043,0.39,0.028l4.026,2.389c0.145,0.079,0.352,0.079,0.486,0l15.697-9.061	c0.145-0.083,0.24-0.251,0.24-0.424V14.932c0-0.181-0.094-0.342-0.243-0.432L24.253,5.446c-0.145-0.086-0.338-0.086-0.483,0	L8.082,14.499c-0.152,0.086-0.249,0.255-0.249,0.428v18.114c0,0.173,0.094,0.338,0.244,0.42l4.299,2.483	c2.334,1.167,3.76-0.208,3.76-1.591V16.476c0-0.255,0.2-0.452,0.456-0.452h1.988c0.248,0,0.452,0.196,0.452,0.452v17.886	c0,3.112-1.697,4.9-4.648,4.9c-0.908,0-1.623,0-3.619-0.982l-4.118-2.373C5.629,35.317,5,34.216,5,33.042V14.928	c0-1.179,0.629-2.279,1.646-2.861L22.36,3.002c0.994-0.562,2.314-0.562,3.301,0l15.694,9.069C42.367,12.656,43,13.753,43,14.932	v18.114c0,1.175-0.633,2.271-1.646,2.861L25.66,44.971c-0.503,0.291-1.073,0.44-1.654,0.44"></path>
    <path fill="currentColor" d="M28.856,32.937c-6.868,0-8.308-3.153-8.308-5.797c0-0.251,0.203-0.452,0.455-0.452h2.028	c0.224,0,0.413,0.163,0.448,0.384c0.306,2.066,1.218,3.108,5.371,3.108c3.308,0,4.715-0.747,4.715-2.502	c0-1.01-0.401-1.76-5.54-2.263c-4.299-0.424-6.955-1.371-6.955-4.809c0-3.167,2.672-5.053,7.147-5.053	c5.026,0,7.517,1.745,7.831,5.493c0.012,0.13-0.035,0.255-0.122,0.35c-0.086,0.09-0.208,0.145-0.334,0.145h-2.039	c-0.212,0-0.397-0.149-0.44-0.354c-0.491-2.173-1.678-2.868-4.904-2.868c-3.611,0-4.031,1.257-4.031,2.2	c0,1.143,0.495,1.477,5.367,2.122c4.825,0.64,7.116,1.544,7.116,4.935c0,3.418-2.853,5.379-7.827,5.379"></path>
  </symbol>
  <symbol xmlns="http://www.w3.org/2000/svg" viewBox="0 0 48 48" id="docker">
    <path fill="currentColor" d="M47.527,19.847c-0.13-0.102-1.345-1.007-3.908-1.007c-0.677,0.003-1.352,0.06-2.019,0.171 c-0.496-3.354-3.219-4.93-3.345-5.003l-0.688-0.392l-0.453,0.644c-0.567,0.866-1.068,1.76-1.311,2.763 c-0.459,1.915-0.18,3.713,0.806,5.25C35.417,22.928,33.386,22.986,33,23H1.582c-0.826,0.001-1.496,0.66-1.501,1.474 c-0.037,2.733,0.353,5.553,1.306,8.119c1.089,2.818,2.71,4.894,4.818,6.164C8.567,40.184,12.405,41,16.756,41 c1.965,0.006,3.927-0.169,5.859-0.524c2.686-0.487,5.271-1.413,7.647-2.74c1.958-1.119,3.72-2.542,5.219-4.215 c2.505-2.798,3.997-5.913,5.107-8.682c0.149,0,0.298,0,0.442,0c2.743,0,4.429-1.083,5.359-1.99 c0.618-0.579,1.101-1.284,1.414-2.065L48,20.216L47.527,19.847z"></path>
    <path fill="currentColor" d="M8,22H5c-0.552,0-1-0.448-1-1v-3c0-0.552,0.448-1,1-1h3c0.552,0,1,0.448,1,1v3 C9,21.552,8.552,22,8,22z"></path>
    <path fill="currentColor" d="M14,22h-3c-0.552,0-1-0.448-1-1v-3c0-0.552,0.448-1,1-1h3c0.552,0,1,0.448,1,1v3 C15,21.552,14.552,22,14,22z"></path>
    <path fill="currentColor" d="M20,22h-3c-0.552,0-1-0.448-1-1v-3c0-0.552,0.448-1,1-1h3c0.552,0,1,0.448,1,1v3 C21,21.552,20.552,22,20,22z"></path>
    <path fill="currentColor" d="M26,22h-3c-0.552,0-1-0.448-1-1v-3c0-0.552,0.448-1,1-1h3c0.552,0,1,0.448,1,1v3 C27,21.552,26.552,22,26,22z"></path>
    <path fill="currentColor" d="M14,16h-3c-0.552,0-1-0.448-1-1v-3c0-0.552,0.448-1,1-1h3c0.552,0,1,0.448,1,1v3 C15,15.552,14.552,16,14,16z"></path>
    <path fill="currentColor" d="M20,16h-3c-0.552,0-1-0.448-1-1v-3c0-0.552,0.448-1,1-1h3c0.552,0,1,0.448,1,1v3 C21,15.552,20.552,16,20,16z"></path>
    <path fill="currentColor" d="M26,16h-3c-0.552,0-1-0.448-1-1v-3c0-0.552,0.448-1,1-1h3c0.552,0,1,0.448,1,1v3 C27,15.552,26.552,16,26,16z"></path>
    <path fill="currentColor" d="M26,10h-3c-0.552,0-1-0.448-1-1V6c0-0.552,0.448-1,1-1h3c0.552,0,1,0.448,1,1v3 C27,9.552,26.552,10,26,10z"></path>
    <path fill="currentColor" d="M32,22h-3c-0.552,0-1-0.448-1-1v-3c0-0.552,0.448-1,1-1h3c0.552,0,1,0.448,1,1v3 C33,21.552,32.552,22,32,22z"></path>
  </symbol>
  <symbol version="1.1" xmlns="http://www.w3.org/2000/svg" xmlns:xlink="http://www.w3.org/1999/xlink" preserveAspectRatio="xMidYMid" viewBox="-63.5 0 383 383" id="puppeteer">
    <g>
      <path d="M253.4216,214.246117 L2.1916,214.246117 L2.1916,200.078117 C2.1916,190.558117 9.9086,182.841117 19.4276,182.841117 L236.1846,182.841117 C245.7046,182.841117 253.4216,190.558117 253.4216,200.078117 L253.4216,214.246117 Z" fill="currentColor"></path>
      <path d="M235.9192,378.552817 L19.6932,378.552817 C10.0272,378.552817 2.1912,370.716817 2.1912,361.050817 L2.1912,214.245817 L253.4212,214.245817 L253.4212,361.050817 C253.4212,370.716817 245.5862,378.552817 235.9192,378.552817" fill="#FFFFFF"></path>
      <path d="M250.302,211.397517 L250.302,198.691517 C250.302,191.190517 244.222,185.109517 236.721,185.109517 L19.279,185.109517 C11.778,185.109517 5.698,191.190517 5.698,198.691517 L5.698,211.397517 L250.302,211.397517 Z M250.302,362.866517 L250.302,217.095517 L5.698,217.095517 L5.698,362.866517 C5.698,370.367517 11.778,376.447517 19.279,376.447517 L236.721,376.447517 C244.222,376.447517 250.302,370.367517 250.302,362.866517 Z M20.554,179.412517 L21.4,170.176517 L17.808,179.486517 C18.295,179.449517 18.782,179.412517 19.279,179.412517 L20.554,179.412517 Z M233.955,163.842517 L235.209,179.412517 L236.721,179.412517 C237.53,179.412517 238.322,179.478517 239.105,179.575517 L233.955,163.842517 Z M251.202,186.006517 C254.179,189.400517 256,193.832517 256,198.691517 L256,362.866517 C256,373.497517 247.351,382.145517 236.721,382.145517 L19.279,382.145517 C8.649,382.145517 -8.52651283e-14,373.497517 -8.52651283e-14,362.866517 L-8.52651283e-14,198.691517 C-8.52651283e-14,193.539517 2.043,188.864517 5.347,185.401517 L24.567,135.584517 L32.948,44.0305167 L42.404,44.8955167 L34.852,127.387517 L37.512,128.413517 L33.902,137.771517 L30.09,179.412517 L225.683,179.412517 L214.829,44.6675167 L224.293,43.9045167 L230.695,123.373517 L230.699,123.372517 L251.202,186.006517 Z M21.1565,194.396517 C23.5325,194.396517 25.4585,196.322517 25.4585,198.698517 C25.4585,201.074517 23.5325,203.000517 21.1565,203.000517 C18.7805,203.000517 16.8545,201.074517 16.8545,198.698517 C16.8545,196.322517 18.7805,194.396517 21.1565,194.396517 Z M35.8645,194.396517 C38.2405,194.396517 40.1665,196.322517 40.1665,198.698517 C40.1665,201.074517 38.2405,203.000517 35.8645,203.000517 C33.4885,203.000517 31.5625,201.074517 31.5625,198.698517 C31.5625,196.322517 33.4885,194.396517 35.8645,194.396517 Z M50.1091,194.396517 C52.4851,194.396517 54.4111,196.322517 54.4111,198.698517 C54.4111,201.074517 52.4851,203.000517 50.1091,203.000517 C47.7331,203.000517 45.8071,201.074517 45.8071,198.698517 C45.8071,196.322517 47.7331,194.396517 50.1091,194.396517 Z" fill="#000000"></path>
      <path d="M36.0217,287.748117 C36.7607,286.893117 37.1497,285.769117 37.1497,284.374117 C37.1497,282.978117 36.7607,281.899117 36.0217,281.044117 C35.2437,280.189117 34.1537,279.784117 32.7537,279.784117 L25.9067,279.784117 L25.9067,289.007117 L32.7537,289.007117 C34.1537,289.007117 35.2437,288.602117 36.0217,287.748117 Z M32.7537,274.251117 C35.7097,274.251117 38.0447,275.151117 39.7947,276.995117 C41.5457,278.839117 42.4017,281.313117 42.4017,284.374117 C42.4017,287.477117 41.5457,289.907117 39.8347,291.751117 C38.0837,293.597117 35.7497,294.541117 32.7537,294.541117 L25.9067,294.541117 L25.9067,306.955117 L20.6157,306.955117 L20.6157,274.251117 L32.7537,274.251117 Z M61.2981,294.307617 L61.2981,284.767617 L66.9961,284.767617 L66.9961,306.307617 L61.2981,306.307617 L61.2981,304.365617 C59.5711,306.091617 57.3271,306.954617 54.5211,306.954617 C51.9311,306.954617 49.8591,306.091617 48.2621,304.408617 C46.6651,302.725617 45.8881,300.566617 45.8881,297.890617 L45.8881,284.767617 L51.5861,284.767617 L51.5861,296.681617 C51.5861,298.192617 51.9741,299.444617 52.7941,300.351617 C53.5711,301.257617 54.6071,301.732617 55.9451,301.732617 C59.5281,301.732617 61.2981,299.271617 61.2981,294.307617 Z M89.2243,300.221717 C90.3463,299.055717 90.9073,297.501717 90.9073,295.559717 C90.9073,293.617717 90.3463,292.019717 89.2243,290.854717 C88.0583,289.688717 86.6343,289.084717 84.8643,289.084717 C83.2673,289.084717 81.8433,289.688717 80.5913,290.897717 C79.3393,292.106717 78.7353,293.659717 78.7353,295.559717 C78.7353,297.458717 79.3393,299.013717 80.5913,300.177717 C81.8433,301.387717 83.2673,301.991717 84.8643,301.991717 C86.6343,301.991717 88.0583,301.387717 89.2243,300.221717 Z M85.8573,284.120717 C88.6633,284.120717 91.1663,285.200717 93.2823,287.358717 C95.3973,289.559717 96.4323,292.278717 96.4323,295.559717 C96.4323,298.839717 95.3973,301.559717 93.2823,303.717717 C91.1663,305.876717 88.7063,306.954717 85.8573,306.954717 C83.0513,306.954717 80.6773,306.177717 78.7353,304.624717 L78.7353,316.583717 L73.0373,316.583717 L73.0373,284.767717 L78.7353,284.767717 L78.7353,286.494717 C80.6343,284.897717 83.0083,284.120717 85.8573,284.120717 Z M116.9348,300.221717 C118.0568,299.055717 118.6178,297.501717 118.6178,295.559717 C118.6178,293.617717 118.0568,292.019717 116.9348,290.854717 C115.7688,289.688717 114.3448,289.084717 112.5748,289.084717 C110.9778,289.084717 109.5538,289.688717 108.3018,290.897717 C107.0498,292.106717 106.4448,293.659717 106.4448,295.559717 C106.4448,297.458717 107.0498,299.013717 108.3018,300.177717 C109.5538,301.387717 110.9778,301.991717 112.5748,301.991717 C114.3448,301.991717 115.7688,301.387717 116.9348,300.221717 Z M113.5668,284.120717 C116.3728,284.120717 118.8768,285.200717 120.9928,287.358717 C123.1068,289.559717 124.1428,292.278717 124.1428,295.559717 C124.1428,298.839717 123.1068,301.559717 120.9928,303.717717 C118.8768,305.876717 116.4168,306.954717 113.5668,306.954717 C110.7618,306.954717 108.3878,306.177717 106.4448,304.624717 L106.4448,316.583717 L100.7478,316.583717 L100.7478,284.767717 L106.4448,284.767717 L106.4448,286.494717 C108.3448,284.897717 110.7188,284.120717 113.5668,284.120717 Z M132.5583,293.055717 L142.9613,293.055717 C142.6163,291.717717 141.9683,290.725717 141.0623,290.076717 C140.1553,289.429717 139.0773,289.084717 137.8673,289.084717 C136.7033,289.084717 135.5803,289.429717 134.5873,290.120717 C133.5513,290.811717 132.8603,291.803717 132.5583,293.055717 Z M137.8673,284.120717 C140.8033,284.120717 143.3503,285.156717 145.4653,287.185717 C147.5803,289.257717 148.6593,291.889717 148.7893,295.127717 L148.7893,297.070717 L132.3863,297.070717 C132.6883,298.580717 133.3353,299.788717 134.3293,300.696717 C135.3213,301.602717 136.4433,302.076717 137.7813,302.076717 C140.2423,302.076717 142.0123,301.127717 143.1343,299.228717 L148.2283,300.307717 C147.3213,302.509717 145.9403,304.150717 144.1273,305.272717 C142.3143,306.394717 140.1993,306.954717 137.7813,306.954717 C134.6733,306.954717 132.0403,305.876717 129.9253,303.761717 C127.8103,301.646717 126.7303,298.883717 126.7303,295.559717 C126.7303,292.236717 127.8103,289.473717 129.9683,287.314717 C132.0833,285.200717 134.7173,284.120717 137.8673,284.120717 Z M164.4997,301.646517 C165.5787,301.646517 166.7877,301.300517 168.0827,300.610517 L169.7227,305.358517 C167.7367,306.437517 165.8807,306.955517 164.1107,306.955517 C161.4777,306.955517 159.4057,306.221517 157.8947,304.796517 C156.3847,303.373517 155.6507,301.257517 155.6507,298.365517 L155.6507,289.429517 L151.0317,289.429517 L151.0317,284.767517 L155.6507,284.767517 L155.6507,278.250517 L161.3487,278.250517 L161.3487,284.767517 L168.3847,284.767517 L168.3847,289.429517 L161.3487,289.429517 L161.3487,297.933517 C161.3487,300.394517 162.3847,301.646517 164.4997,301.646517 Z M176.4543,293.055717 L186.8573,293.055717 C186.5123,291.717717 185.8643,290.725717 184.9583,290.076717 C184.0513,289.429717 182.9733,289.084717 181.7633,289.084717 C180.5993,289.084717 179.4763,289.429717 178.4833,290.120717 C177.4473,290.811717 176.7563,291.803717 176.4543,293.055717 Z M181.7633,284.120717 C184.6993,284.120717 187.2463,285.156717 189.3613,287.185717 C191.4763,289.257717 192.5553,291.889717 192.6853,295.127717 L192.6853,297.070717 L176.2823,297.070717 C176.5843,298.580717 177.2313,299.788717 178.2253,300.696717 C179.2173,301.602717 180.3393,302.076717 181.6773,302.076717 C184.1383,302.076717 185.9083,301.127717 187.0303,299.228717 L192.1233,300.307717 C191.2173,302.509717 189.8363,304.150717 188.0233,305.272717 C186.2103,306.394717 184.0953,306.954717 181.6773,306.954717 C178.5693,306.954717 175.9363,305.876717 173.8213,303.761717 C171.7063,301.646717 170.6263,298.883717 170.6263,295.559717 C170.6263,292.236717 171.7063,289.473717 173.8643,287.314717 C175.9793,285.200717 178.6133,284.120717 181.7633,284.120717 Z M202.0495,293.055717 L212.4525,293.055717 C212.1075,291.717717 211.4595,290.725717 210.5535,290.076717 C209.6465,289.429717 208.5685,289.084717 207.3585,289.084717 C206.1945,289.084717 205.0715,289.429717 204.0785,290.120717 C203.0425,290.811717 202.3515,291.803717 202.0495,293.055717 Z M207.3585,284.120717 C210.2945,284.120717 212.8415,285.156717 214.9565,287.185717 C217.0715,289.257717 218.1505,291.889717 218.2805,295.127717 L218.2805,297.070717 L201.8775,297.070717 C202.1795,298.580717 202.8265,299.788717 203.8205,300.696717 C204.8125,301.602717 205.9345,302.076717 207.2725,302.076717 C209.7335,302.076717 211.5035,301.127717 212.6255,299.228717 L217.7195,300.307717 C216.8125,302.509717 215.4315,304.150717 213.6185,305.272717 C211.8055,306.394717 209.6905,306.954717 207.2725,306.954717 C204.1645,306.954717 201.5315,305.876717 199.4165,303.761717 C197.3015,301.646717 196.2215,298.883717 196.2215,295.559717 C196.2215,292.236717 197.3015,289.473717 199.4595,287.314717 C201.5745,285.200717 204.2085,284.120717 207.3585,284.120717 Z M236.0197,284.465817 C236.6677,284.465817 237.1857,284.508817 237.5317,284.637817 L237.2287,290.120817 L235.9777,290.120817 C230.8407,290.120817 228.2927,293.185817 228.2927,299.358817 L228.2927,306.307817 L222.5957,306.307817 L222.5957,284.767817 L228.2927,284.767817 L228.2927,288.695817 C230.2357,285.889817 232.8257,284.465817 236.0197,284.465817 Z" fill="#000000"></path>
      <polygon fill="currentColor" points="211.0954 132.638217 241.8364 117.797217 241.8364 102.957217 170.8134 69.0352167 241.8364 32.4642167 241.8364 18.1542167 212.1554 4.37321674 128.0594 46.2442167 42.5494 4.37321674 14.9884 19.2142167 14.9884 31.9342167 81.7704 68.5052167 14.9884 102.427217 14.9884 117.797217 43.6094 132.638217 128.4124 89.1762167"></polygon>
      <path d="M214.9494,126.584517 L214.9494,120.192517 L238.0894,108.201517 L238.0894,115.381517 L214.9494,126.584517 Z M16.8504,108.033517 L39.2104,120.869517 L39.2104,125.979517 L16.8504,114.667517 L16.8504,108.033517 Z M131.3834,81.0395167 L208.3024,119.044517 L208.3024,126.686517 L131.3834,87.2815167 L131.3834,81.0395167 Z M45.8574,120.156517 L124.7364,81.0475167 L124.7364,87.2795167 L45.8574,127.187517 L45.8574,120.156517 Z M101.7094,56.2515167 L21.8874,17.7135167 L42.5614,7.20651674 L128.0594,51.5295167 L212.1264,7.22551674 L233.5304,18.1885167 L155.6894,57.3625167 C152.5774,58.9285167 152.5824,63.3735167 155.6974,64.9325167 L232.7354,103.489517 L212.7674,113.836517 L128.0594,70.4335167 L41.8534,114.722517 L22.1644,103.419517 L101.7534,63.8575167 C104.9064,62.2905167 104.8804,57.7825167 101.7094,56.2515167 L101.7094,56.2515167 Z M17.8444,30.7705167 L17.8444,23.7565167 L92.2904,60.8985167 L84.7644,63.9055167 L17.8444,30.7705167 Z M170.4984,64.3185167 C170.3964,64.2565167 163.3684,60.9405167 163.3684,60.9405167 L238.0894,23.3355167 L238.0894,30.3805167 L170.4984,64.3185167 Z M177.9774,68.0015167 L243.6524,35.0255167 C244.3174,34.6915167 244.7374,34.0105167 244.7374,33.2665167 L244.7374,17.6635167 C244.7374,16.9245167 244.3234,16.2485167 243.6664,15.9115167 L213.0334,0.221516741 C212.4724,-0.0654832591 211.8074,-0.0664832591 211.2454,0.218516741 L128.9424,41.9825167 C128.3874,42.2645167 127.7314,42.2675167 127.1734,41.9885167 L43.4204,0.206516741 C42.8634,-0.0714832591 42.2064,-0.0684832591 41.6504,0.213516741 L11.2794,15.6475167 C10.6184,15.9835167 10.2024,16.6615167 10.2024,17.4025167 L10.2024,33.2575167 C10.2024,34.0065167 10.6274,34.6905167 11.2994,35.0225167 L77.2504,67.6065167 L11.6044,100.201517 C10.9474,100.528517 10.5254,101.193517 10.5124,101.928517 L10.2254,117.519517 C10.2114,118.274517 10.6314,118.970517 11.3044,119.311517 L42.8414,135.267517 C43.3984,135.548517 44.0554,135.549517 44.6134,135.269517 L127.1714,93.8145167 C127.7294,93.5335167 128.3884,93.5355167 128.9464,93.8185167 L210.4754,135.272517 C211.0234,135.550517 211.6704,135.557517 212.2244,135.289517 L243.6264,120.086517 C244.3054,119.757517 244.7374,119.069517 244.7374,118.315517 L244.7374,102.025517 C244.7374,101.274517 244.3104,100.589517 243.6364,100.258517 L177.9774,68.0015167 Z" fill="#000000"></path>
    </g>
  </symbol>
  <symbol xmlns="http://www.w3.org/2000/svg" viewBox="0 0 48 48" id="postgres">
    <path fill="#fff" d="M44.083,29.79c-0.183-0.829-0.935-1.796-2.452-1.796c-0.31,0-0.649,0.039-1.035,0.119c-0.708,0.146-1.311,0.217-1.842,0.241c4.133-7.04,6.816-16.819,4.159-20.214c-3.501-4.473-8.214-5.141-10.711-5.141L31.967,3c-0.929,0.015-1.893,0.129-2.863,0.339l-3.583,0.774C25.033,4.052,24.536,4.009,24.018,4l-0.03,0l-0.016,0l-0.152-0.001c-1.593,0-3.046,0.338-4.341,0.973l-1.251-0.493c-1.72-0.678-4.308-1.485-6.868-1.485c-0.144,0-0.287,0.003-0.431,0.008C8.407,3.093,6.241,4.05,4.664,5.769C2.696,7.915,1.8,11.054,2.003,15.1C2.013,15.309,4.461,36,11.4,36h0.025l0.064-0.001c0.901-0.022,1.76-0.384,2.563-1.077c0.613,0.46,1.406,0.732,2.145,0.84c0.488,0.115,1.366,0.278,2.418,0.278c1.284,0,2.442-0.263,3.44-0.738c-0.001,0.88-0.006,1.994-0.016,3.418l-0.001,0.075l0.005,0.075c0.097,1.419,0.342,2.698,0.711,3.701c1.051,2.859,2.866,4.434,5.111,4.434c0.093,0,0.188-0.003,0.284-0.009c1.846-0.114,3.717-1.151,5.004-2.772c1.393-1.755,1.715-3.607,1.839-5.026L35,39.111v-0.088v-4.079l0.103,0.01l0.436,0.038l0.042,0.004l0.042,0.002c0.124,0.006,0.252,0.008,0.381,0.008c1.507,0,3.362-0.391,4.616-0.974C41.819,33.476,44.559,31.948,44.083,29.79z"></path>
    <path fill="#0277bd" d="M33,34c0-0.205,0.012-0.376,0.018-0.565C33.008,33.184,33,33,33,33s0.012-0.009,0.032-0.022c0.149-2.673,0.886-3.703,1.675-4.29c-0.11-0.153-0.237-0.318-0.356-0.475c-0.333-0.437-0.748-0.979-1.192-1.674l-0.082-0.158c-0.067-0.164-0.229-0.447-0.435-0.819c-1.183-2.14-3.645-6.592-1.96-9.404c0.738-1.232,2.122-1.942,4.121-2.117C33.986,11.718,30.925,6.115,23.985,6c-0.002,0-0.004,0-0.006,0c-6.041-0.098-8.026,5.392-8.672,8.672c0.89-0.377,1.906-0.606,2.836-0.606c0.014,0,0.029,0,0.043,0c2.29,0.017,3.865,1.239,4.323,3.354c0.335,1.552,0.496,2.91,0.492,4.153c-0.01,2.719-0.558,4.149-1.042,5.411l-0.154,0.408c-0.124,0.334-0.255,0.645-0.379,0.937c-0.126,0.298-0.237,0.563-0.318,0.802c0.484,0.11,0.864,0.265,1.125,0.38l0.151,0.066c0.047,0.02,0.094,0.043,0.137,0.069c0.848,0.516,1.376,1.309,1.489,2.233c0.061,0.498,0.051,3.893,0.03,6.855c0.087,1.285,0.305,2.364,0.593,3.146c0.409,1.114,1.431,3.241,3.394,3.119c1.37-0.085,2.687-0.919,3.561-2.019c0.938-1.181,1.284-2.487,1.414-3.958V34z"></path>
    <path fill="#0277bd" d="M15.114 28.917c-1.613-1.683-2.399-3.947-2.104-6.056.285-2.035.124-4.027.037-5.098-.029-.357-.048-.623-.047-.77 0-.008.002-.015.003-.023 0-.004-.002-.007-.002-.011.121-3.021 1.286-7.787 4.493-10.62C15.932 5.724 13.388 4.913 11 5 7.258 5.136 3.636 7.724 4 15c.137 2.73 3.222 19.103 7.44 19 .603-.015 1.229-.402 1.872-1.176 1.017-1.223 2.005-2.332 2.708-3.104C15.705 29.481 15.401 29.217 15.114 28.917zM37.023 14.731c.015.154.002.286-.022.408.031.92-.068 1.813-.169 2.677-.074.636-.15 1.293-.171 1.952-.021.645.07 1.282.166 1.956.225 1.578.459 3.359-.765 5.437.225.296.423.571.581.837 4.61-7.475 6.468-16.361 4.695-18.626C38.655 5.944 34.941 4.952 31.999 5c-.921.015-1.758.139-2.473.294C34.602 7.754 36.863 13.026 37.023 14.731zM41 30.071c-2.665.55-3.947.257-4.569-.126-.1.072-.2.133-.293.19-.372.225-.961.583-1.105 2.782.083.016.156.025.246.044L35.714 33c1.32.06 3.049-.31 4.063-.781C41.962 31.205 43.153 29.627 41 30.071zM22.023 32.119c-.037-.298-.198-.539-.492-.732l-.108-.047C21.062 31.181 20.653 31 20 31h-.004c-.127.01-.253.019-.38.019-.052 0-.103-.007-.155-.009-.474.365-1.148.647-2.816.99-2.98.759-1.221 1.655-.078 1.794 1.106.277 3.735.614 5.481-.809C22.043 32.537 22.035 32.229 22.023 32.119z"></path>
    <path fill="#0277bd" d="M20.681 18.501c-.292.302-.753.566-1.262.484-.828-.134-1.463-1.133-1.417-1.508h0c.044-.374.751-.569 1.578-.435.287.047.548.128.768.228-.32-.688-.899-1.085-1.782-1.182-1.565-.174-3.226.644-3.56 1.097.007.11.02.251.033.417.093 1.147.265 3.284-.05 5.537-.208 1.485.393 3.169 1.567 4.395.757.79 1.641 1.29 2.513 1.438.111-.478.309-.944.513-1.425.113-.265.233-.547.346-.852l.162-.427c.443-1.155.9-2.35.909-4.703C21.003 20.66 20.892 19.627 20.681 18.501zM34.847 22.007c-.104-.729-.211-1.484-.185-2.303.023-.742.105-1.442.184-2.119.062-.533.11-1.045.138-1.55-1.289.107-2.145.479-2.551 1.108.168-.057.358-.102.568-.129.892-.116 1.543.141 1.618.637.055.363-.253.705-.388.836-.277.269-.626.442-.981.488-.064.008-.129.012-.192.012-.353 0-.69-.121-.949-.3.112 1.973 1.567 4.612 2.283 5.907.153.277.271.498.369.688C35.154 24.163 35.009 23.143 34.847 22.007z"></path>
  </symbol>
</svg>
