<svg xmlns="http://www.w3.org/2000/svg" version="1.1" xmlns:xlink="http://www.w3.org/1999/xlink" xmlns:svgjs="http://svgjs.dev/svgjs" width="2000" height="550" viewBox="0 0 2000 550"><g transform="matrix(1,0,0,1,-1.2121212121212466,0.5775057612748924)"><svg viewBox="0 0 396 109" data-background-color="#2e2e2e" preserveAspectRatio="xMidYMid meet" height="550" width="2000" xmlns="http://www.w3.org/2000/svg" xmlns:xlink="http://www.w3.org/1999/xlink"><g id="tight-bounds" transform="matrix(1,0,0,1,0.2400000000000091,-0.11445114177993787)"><svg viewBox="0 0 395.52 109.22890228355989" height="109.22890228355989" width="395.52"><g><svg viewBox="0 0 657.3647887208651 181.54134878601428" height="109.22890228355989" width="395.52"><g transform="matrix(1,0,0,1,261.84478872086515,53.889693859481554)"><svg viewBox="0 0 395.52 73.76196106705117" height="73.76196106705117" width="395.52"><g id="textblocktransform"><svg viewBox="0 0 395.52 73.76196106705117" height="73.76196106705117" width="395.52" id="textblock"><g><svg viewBox="0 0 395.52 73.76196106705117" height="73.76196106705117" width="395.52"><g transform="matrix(1,0,0,1,0,0)"><svg width="395.52" viewBox="0.45 -38.15 208.03 38.8" height="73.76196106705117" data-palette-color="#20b2aa"><path d="M0.45-24.85L5.3-24.85 10.5-9.95Q10.85-8.95 11.15-8.03 11.45-7.1 11.7-5.9L11.7-5.9Q12-7.05 12.25-7.98 12.5-8.9 12.8-9.8L12.8-9.8 18.1-24.85 22.3-24.85 13.4 0.3 9.3 0.3 0.45-24.85ZM24.9-11.05L24.9-15 36.35-15 36.35-11.05 24.9-11.05ZM40.75-24.7L45.7-25.25Q46.05-24.45 46.27-23.58 46.5-22.7 46.6-21.85L46.6-21.85Q48.05-23.2 49.95-24.33 51.85-25.45 53.95-25.45L53.95-25.45Q56.25-25.45 57.95-24.5 59.65-23.55 60.65-21.4L60.65-21.4Q62.2-22.95 64.22-24.2 66.25-25.45 68.5-25.45L68.5-25.45Q71.25-25.45 72.87-24.3 74.5-23.15 75.22-21.2 75.95-19.25 75.95-16.65L75.95-16.65 75.95 0 71.4 0 71.4-15.55Q71.4-17 71.17-18.38 70.95-19.75 70.09-20.65 69.25-21.55 67.45-21.55L67.45-21.55Q65.8-21.55 64.15-20.48 62.5-19.4 61.4-18.3L61.4-18.3 61.4 0 56.84 0 56.84-15.55Q56.84-17 56.62-18.38 56.4-19.75 55.57-20.65 54.75-21.55 52.9-21.55L52.9-21.55Q51.9-21.55 50.77-21.05 49.65-20.55 48.65-19.8 47.65-19.05 46.9-18.35L46.9-18.35 46.9 0 42.35 0 42.35-18Q42.35-19 42.17-20.23 42-21.45 41.65-22.65 41.3-23.85 40.75-24.7L40.75-24.7ZM93.09 0.65L93.09 0.65Q89.44 0.65 86.92-1.15 84.39-2.95 83.12-5.9 81.84-8.85 81.84-12.25L81.84-12.25Q81.84-15.65 83.22-18.68 84.59-21.7 87.19-23.58 89.79-25.45 93.39-25.45L93.39-25.45Q97.09-25.45 99.62-23.68 102.14-21.9 103.42-18.95 104.69-16 104.69-12.55L104.69-12.55Q104.69-9.1 103.34-6.1 101.99-3.1 99.39-1.23 96.79 0.65 93.09 0.65ZM93.14-2.7L93.14-2.7Q95.04-2.7 96.32-3.6 97.59-4.5 98.37-5.98 99.14-7.45 99.47-9.15 99.79-10.85 99.79-12.4L99.79-12.4Q99.79-14 99.52-15.7 99.24-17.4 98.52-18.85 97.79-20.3 96.52-21.2 95.24-22.1 93.34-22.1L93.34-22.1Q91.44-22.1 90.17-21.18 88.89-20.25 88.14-18.78 87.39-17.3 87.04-15.63 86.69-13.95 86.69-12.4L86.69-12.4Q86.69-10.9 87.02-9.2 87.34-7.5 88.07-6.03 88.79-4.55 90.04-3.63 91.29-2.7 93.14-2.7ZM109.94-38.15L115.19-38.15 115.19-14.6 124.14-24.85 128.89-24.85 119.64-14.4 130.24 0 124.94 0 115.19-13.35 115.19 0 110.59 0 110.59-35.3 109.94-38.15ZM133.24-38.15L138.34-38.15 138.34-22.05Q139.94-23.45 141.79-24.48 143.64-25.5 145.84-25.5L145.84-25.5Q148.59-25.5 150.24-24.38 151.89-23.25 152.61-21.28 153.34-19.3 153.34-16.7L153.34-16.7 153.34 0 148.84 0 148.84-15.5Q148.84-16.95 148.61-18.35 148.39-19.75 147.59-20.68 146.79-21.6 144.89-21.6L144.89-21.6Q143.74-21.6 142.56-21.1 141.39-20.6 140.31-19.88 139.24-19.15 138.34-18.4L138.34-18.4 138.34 0 133.84 0 133.84-35.3 133.24-38.15ZM160.43-24.85L165.63-24.85 165.63-9.45Q165.63-8.05 165.88-6.63 166.13-5.2 166.96-4.23 167.78-3.25 169.58-3.25L169.58-3.25Q171.38-3.25 172.83-4.03 174.28-4.8 175.18-6.15 176.08-7.5 176.08-9.3L176.08-9.3 176.08-21.95Q176.08-22 175.93-22.68 175.78-23.35 175.63-24.05 175.48-24.75 175.43-24.85L175.43-24.85 180.63-24.85 180.63-5.2Q180.63-4.15 180.98-3.68 181.33-3.2 182.08-3.2L182.08-3.2Q182.78-3.2 183.98-3.65L183.98-3.65 184.88-0.8Q183.88-0.25 182.61 0.1 181.33 0.45 180.19 0.45L180.19 0.45Q178.83 0.45 177.78-0.3 176.73-1.05 176.44-2.95L176.44-2.95Q174.93-1.4 172.88-0.38 170.83 0.65 168.63 0.65L168.63 0.65Q165.88 0.65 164.21-0.48 162.53-1.6 161.81-3.58 161.08-5.55 161.08-8.15L161.08-8.15 161.08-21.95 160.43-24.85ZM187.33-24.65L192.28-25.3Q192.63-24.45 192.86-23.58 193.08-22.7 193.18-21.8L193.18-21.8Q194.68-23.25 196.73-24.35 198.78-25.45 200.88-25.45L200.88-25.45Q203.68-25.45 205.33-24.33 206.98-23.2 207.73-21.23 208.48-19.25 208.48-16.65L208.48-16.65 208.48 0 203.93 0 203.93-15.45Q203.93-16.9 203.73-18.32 203.53-19.75 202.71-20.65 201.88-21.55 199.98-21.55L199.98-21.55Q198.88-21.55 197.66-21.08 196.43-20.6 195.36-19.88 194.28-19.15 193.48-18.35L193.48-18.35 193.48 0 188.98 0 188.98-17.65Q188.98-18.6 188.83-19.93 188.68-21.25 188.33-22.55 187.98-23.85 187.33-24.65L187.33-24.65Z" opacity="1" transform="matrix(1,0,0,1,0,0)" fill="#20b2aa" class="wordmark-text-0" data-fill-palette-color="primary" id="text-0"></path></svg></g></svg></g></svg></g></svg></g><g><svg viewBox="0 0 244.43135999999998 181.54134878601428" height="181.54134878601428" width="244.43135999999998"><g><svg xmlns="http://www.w3.org/2000/svg" xmlns:xlink="http://www.w3.org/1999/xlink" version="1.1" x="0" y="0" viewBox="7.5 18.435 85.001 63.131" enable-background="new 0 0 100 100" xml:space="preserve" height="181.54134878601428" width="244.43135999999998" class="icon-icon-0" data-fill-palette-color="accent" id="icon-0"><g fill="#20b2aa" data-fill-palette-color="accent"><path d="M89.405 18.435H10.595c-1.706 0-3.095 1.389-3.095 3.095v56.941c0 1.706 1.389 3.095 3.095 3.095h78.811c1.707 0 3.095-1.389 3.095-3.095V77.14 32.027 21.529C92.5 19.823 91.112 18.435 89.405 18.435zM10.595 19.673h78.811c1.023 0 1.857 0.833 1.857 1.856v9.075c-0.068-0.01-0.136-0.021-0.207-0.021H8.951c-0.073 0-0.143 0.011-0.213 0.021v-9.076C8.738 20.506 9.571 19.673 10.595 19.673zM91.263 77.14c0 0.114-0.093 0.206-0.207 0.206H8.951c-0.113 0-0.206-0.092-0.206-0.206V32.027c0-0.113 0.093-0.206 0.206-0.206h82.104c0.114 0 0.207 0.093 0.207 0.206V77.14zM89.405 80.327H10.595c-0.992 0-1.798-0.784-1.848-1.764 0.067 0.01 0.135 0.021 0.204 0.021h82.104c0.068 0 0.133-0.011 0.197-0.02C91.202 79.544 90.396 80.327 89.405 80.327z" fill="#20b2aa" data-fill-palette-color="accent"></path><path d="M28.178 27.787c1.45 0 2.63-1.18 2.63-2.63 0-1.451-1.18-2.631-2.63-2.631s-2.631 1.18-2.631 2.631C25.547 26.607 26.728 27.787 28.178 27.787zM28.178 23.765c0.768 0 1.393 0.624 1.393 1.393 0 0.768-0.625 1.393-1.393 1.393-0.769 0-1.393-0.625-1.393-1.393C26.785 24.389 27.409 23.765 28.178 23.765z" fill="#20b2aa" data-fill-palette-color="accent"></path><path d="M21.458 27.787c1.451 0 2.631-1.18 2.631-2.63 0-1.451-1.18-2.631-2.631-2.631-1.45 0-2.63 1.18-2.63 2.631C18.828 26.607 20.008 27.787 21.458 27.787zM21.458 23.765c0.769 0 1.393 0.624 1.393 1.393 0 0.768-0.624 1.393-1.393 1.393-0.768 0-1.393-0.625-1.393-1.393C20.065 24.389 20.69 23.765 21.458 23.765z" fill="#20b2aa" data-fill-palette-color="accent"></path><path d="M14.738 27.787c1.451 0 2.631-1.18 2.631-2.63 0-1.451-1.18-2.631-2.631-2.631-1.45 0-2.63 1.18-2.63 2.631C12.108 26.607 13.288 27.787 14.738 27.787zM14.738 23.765c0.769 0 1.393 0.624 1.393 1.393 0 0.768-0.624 1.393-1.393 1.393-0.768 0-1.393-0.625-1.393-1.393C13.346 24.389 13.971 23.765 14.738 23.765z" fill="#20b2aa" data-fill-palette-color="accent"></path></g><path d="M26.598 65.915c-0.624 0-1.395-0.429-2.289-1.276-1.605-1.519-2.16-2.371-1.2-3.405l8.79-8.811-8.774-8.782c-0.676-0.676-0.57-1.195-0.401-1.57 0.242-0.544 0.814-1.117 1.479-1.781 0.829-0.829 1.542-1.542 2.241-1.542 0.342 0 0.679 0.172 1.033 0.526l11.769 11.755c0.311 0.254 0.521 0.659 0.564 1.134 0.048 0.537-0.134 1.152-0.452 1.533L27.53 65.514C27.243 65.787 26.941 65.915 26.598 65.915zM23.846 42.57c-0.009 0 0.027 0.068 0.154 0.194l9.211 9.221c0.241 0.242 0.241 0.633 0 0.875L24 62.093c-0.093 0.1-0.125 0.147-0.133 0.166 0.012 0.047 0.125 0.377 1.292 1.48 0.979 0.927 1.42 0.938 1.438 0.938v0.619l0.01-0.62c-0.001 0.001-0.001 0.001-0.001 0.001-0.003 0 0.02-0.012 0.061-0.05l11.777-11.767c0.061-0.077 0.151-0.357 0.131-0.589-0.013-0.145-0.063-0.246-0.162-0.328L26.601 40.148c-0.144-0.143-0.215-0.171-0.215-0.171-0.182 0.06-0.886 0.764-1.307 1.184-0.531 0.532-1.077 1.078-1.227 1.413C23.85 42.571 23.848 42.57 23.846 42.57z" fill="#20b2aa" data-fill-palette-color="accent"></path><path d="M55.834 71.436H40.498c-1.594 0-1.92-1.234-1.92-3.088s0.326-3.088 1.92-3.088h15.336c1.503 0 1.787 1.085 1.787 3.088C57.621 70.396 57.346 71.436 55.834 71.436zM40.498 66.497c-0.366 0-0.683 0-0.683 1.851s0.316 1.851 0.683 1.851h15.336c0.354 0 0.55 0 0.55-1.851s-0.219-1.851-0.55-1.851H40.498z" fill="#20b2aa" data-fill-palette-color="accent"></path></svg></g></svg></g></svg></g><defs></defs></svg><rect width="395.52" height="109.22890228355989" fill="none" stroke="none" visibility="hidden"></rect></g></svg></g></svg>
